<svg version="1.2" xmlns="http://www.w3.org/2000/svg" viewBox="0 0 2467 1152" width="2467" height="1152">
	<title>signature</title>
	<style>
		.s0 { fill: #000000 } 
		.s1 { fill: #ffffff } 
	</style>
	<g id="Background">
		<path id="Path 3" fill-rule="evenodd" class="s0" d="m1852.1-1739.9c-1.2 1.1-2.1 2.5-2.1 3.2 0 0.6 0.5 1.8 1.2 2.5 0.7 0.7 1.3 2.1 1.3 3 0 1.2 0.8 1.7 3 1.7 1.7 0 3 0.4 3 1 0 0.6-1.2 0.9-2.7 0.8-1.6-0.2-3 0.1-3.3 0.7-0.3 0.6-0.1 1.6 0.4 2.3 0.5 0.6 3.3 1.6 6.2 2 3 0.5 6.2 1.6 7.2 2.5 1.4 1.3 2 1.4 3 0.5 0.9-1 1.4-0.9 2.2 0.4 0.7 1.1 1.6 1.4 3 0.8 1.1-0.5 2.7-0.9 3.6-0.9 0.9-0.1 2.7-1 3.8-2.1 1.2-1.1 2.2-2.3 2.1-2.7 0-0.5-1.3-2.1-3-3.8-1.7-1.6-2.8-3.4-2.5-4 0.3-0.6 0.1-2-0.4-3.2-0.5-1.3-1.9-2.5-3.2-2.7-1.3-0.2-5.9-0.4-10.2-0.5-6-0.1-8.2-0.5-9.2-1.7-1.2-1.5-1.5-1.5-3.4 0.2zm57.9 6.9c0 0.5-0.8 1-1.8 1-1 0-2.2 0.4-2.8 1-0.5 0.5-2.6 1.1-4.6 1.2-2.1 0.1-4.3 0.7-5 1.5-0.7 0.8-3.2 1.4-5.5 1.3-2.4 0-4.3 0.3-4.3 0.8 0 0.4 0.6 2.2 1.3 4 1 2.6 2 3.5 5.2 4.3 2.2 0.5 6.7 1.9 10 3 3.3 1.1 7.3 2.2 9 2.5 1.7 0.2 4.1 0.5 5.5 0.6 1.4 0 7.7 0.7 14 1.5 6.3 0.7 12.4 1.4 13.5 1.4 1.1 0 2.9 0.5 4 1.1 1.1 0.7 3.8 1.5 6 1.8q4 0.7 6.5-0.6c1.4-0.8 3.3-1.2 4.3-0.9 1 0.3 2.1-0.3 2.7-1.5 0.6-1.1 1.6-1.8 2.5-1.5 0.8 0.3 2.7-0.3 4.2-1.2 1.5-1 3.4-1.9 4.3-2 0.8-0.2 1.6-0.4 1.8-0.5 0.1-0.2 0.5-2.4 0.7-5 0.5-4.7 0.5-4.8-3.2-6.3-2.1-0.9-8.3-1.9-13.8-2.2-7.8-0.5-11.3-0.2-16 1.1-3.3 0.9-7.1 2.1-8.5 2.5-1.4 0.5-3.2 0.5-4 0-0.8-0.5-3-0.9-4.7-0.9-1.8 0-4.3-0.6-5.5-1.2-1.3-0.7-2.6-1.9-3-2.5-0.5-0.7-2.3-1.9-4-2.6-1.8-0.8-4.5-1.7-6-2.1-1.7-0.4-2.8-0.2-2.8 0.4zm110.7 7.7c-1 0.9-3.2 1.7-4.9 1.8-2.8 0-3.3 0.4-4 3.5-0.4 1.9-1 3.7-1.3 4-0.4 0.3-1-0.2-1.6-1-0.5-0.8-0.7-2.5-0.4-3.7 0.4-1.8 0-2.4-1.7-2.6-1.3-0.2-3.4 0-4.8 0.3-2.1 0.5-2.5 1.2-2.7 4.8-0.2 2.3 0.1 4.2 0.7 4.2 0.6 0 1-1.9 1-4.2 0-2.9 0.3-4 1-3.3 0.6 0.6 1.1 2.2 1.3 3.7 0.1 1.4 0.6 3 1 3.5 0.5 0.4 4.1 0.9 8 1.1 4 0.2 8.8 0.7 10.7 1.2 1.9 0.5 3.9 0.6 4.5 0.3 0.6-0.4 9.3-0.6 19.5-0.6 10.2 0 20 0.3 21.8 0.7 1.9 0.3 3.5 0.2 4-0.5 0.4-0.6 0-1.5-0.8-2-0.8-0.5-2.7-0.9-4.2-0.9-1.6 0-3-0.4-3.3-1-0.3-0.6-2.4-1-4.7-1-2.4 0-5.4-0.7-6.8-1.5-1.4-0.8-3.8-2.1-5.5-2.9-1.7-0.7-3.3-2.3-3.7-3.5-0.5-1.1-1.5-2.1-2.3-2.1-1.1 0-1.4 0.7-1 2.5 0.4 1.9 0.1 2.5-1.3 2.5-1 0-2.2 0.5-2.8 1-0.5 0.6-2.5 0.9-4.4 0.8-3-0.3-3.6-0.7-4-3.3-0.4-2.3-1.1-3.1-3-3.3-1.4-0.2-3.3 0.5-4.3 1.5zm116.4 13.6c-0.8 0.9-0.8 1.5 0.1 2.4 0.8 0.7 1.9 0.9 2.8 0.3 0.9-0.5 1.2-1.4 0.8-2.4-0.5-0.9-1.2-1.6-1.7-1.6-0.5 0-1.4 0.6-2 1.3zm8-0.3c-1.4 0.5-2.4 1.3-2.3 1.7 0.1 0.4 1.2 1.4 2.4 2 1.3 0.7 5.7 1.4 9.8 1.5 6.9 0.3 7.5 0.1 7.5-1.7 0-1.4-0.9-2.1-3.5-2.6-1.9-0.4-5.3-0.9-7.5-1.2-2.2-0.3-5.1-0.1-6.4 0.3zm-594.3 27.1c-0.3 1.7-1.1 2.1-5.3 2.3-2.7 0.1-5.6 0.6-6.2 0.9-0.7 0.4-1.1 1.1-0.8 1.7 0.3 0.6-0.3 1.6-1.2 2.4-1 0.8-1.8 2.7-1.9 4.3-0.1 2.1-0.7 3-2.5 3.5-2 0.5-2.1 0.6-0.4 0.7 1.3 0 2.4 1.2 3.3 3.6 0.7 2.2 0.9 4.2 0.3 5.3-0.5 1-0.5 2.7 0 4 0.5 1.2 1.5 2.2 2.2 2.2 0.6-0.1 1.8 0.6 2.5 1.5 1.1 1.3 1.5 1.3 4 0.1 1.6-0.9 3.9-1.2 5.7-0.9 1.8 0.3 3.3 0.1 3.8-0.6 0.4-0.6 1.4-1.1 2.2-1.1 0.8 0 3.1-0.7 5-1.5 2.8-1.2 3.3-1.8 2.5-3-0.7-1.1-0.6-1.6 0.3-1.8 1-0.3 1-0.7 0-2-1.1-1.4-1-1.9 0.5-2.6 1.2-0.7 1.8-2.4 2-6l0.2-5.1c-6.5 0-8.3-0.8-10.3-2.8-1.5-1.5-2.7-3.7-2.7-4.9 0-1.4-0.6-2.3-1.4-2.3-0.8 0-1.6 0.9-1.8 2.1zm96.8 14c-0.4 0.8-0.5 2.2-0.2 3.2 0.5 1.4 1.3 1.6 4.4 1 2-0.3 4.5-0.7 5.5-0.7 0.9-0.1 1.7-0.7 1.7-1.3 0-0.7-0.7-1.1-1.5-0.8-0.8 0.3-2.2-0.2-3.1-1-1-1.1-1.9-1.3-2.7-0.6-0.8 0.7-1.5 0.7-2.2-0.1-0.8-0.8-1.2-0.8-1.9 0.3zm4.3 6.9q-2.4 0.6-1.1 1.3c0.6 0.4 1.2 1.6 1.2 2.7 0 1.5-0.7 2-2.5 2-1.4 0-2.7 0.4-3 1-0.3 0.6 0.6 1 2 1 1.4 0 2.4 0.5 2.3 1.3 0 0.6 0.4 2.4 1 4 0.7 1.5 1.8 2.9 2.5 3 0.6 0.2 2.5 0 4.2-0.6 1.7-0.5 4.3-0.8 5.9-0.6 1.5 0.2 3 0 3.3-0.6 0.2-0.6 0-2.6-0.6-4.5-0.5-2.1-1-2.7-1-1.5-0.2 1.8-0.2 1.9-1.1 0.3-0.6-1-1.8-1.8-2.7-1.8-1 0-2.4-0.5-3.1-1.2-0.7-0.7-1.2-2.1-1.2-3 0.1-1-0.7-2.1-1.8-2.6-1-0.5-3-0.6-4.3-0.2zm97.2 4.4c-0.1 0.9-0.7 2.5-1.3 3.6-1 1.5-1 2.2-0.1 3.2 0.9 1 1.5 1 2.5 0.1 0.7-0.7 2.2-1 3.3-0.7 1.1 0.3 2.5 0 3.2-0.8 0.9-1 0.7-1.9-0.8-3.8-1.6-2-2-2.1-1.9-0.7 0 1-0.7 1.7-2 1.7q-2 0-1.5-1.5c0.3-0.8 0.1-1.8-0.4-2.1-0.5-0.3-0.9 0.2-1 1zm-13.2 13.1c-1.7 1.1-2.6 2.4-2.2 2.8 0.4 0.5 3.5 0.8 6.8 0.8 3.4 0 6.6-0.6 7.3-1.3 0.7-0.7 1.3-1.9 1.2-2.5 0-0.8-1.8-1.4-5.1-1.5-3.7-0.2-5.9 0.2-8 1.7zm-975.1 8c-0.4 1.7-0.3 3.3 0 3.7 0.4 0.4 1.4 0.3 2.2-0.2 1.1-0.7 1.2-1.2 0.4-1.7-0.7-0.5-1.4-1.7-1.6-2.8-0.3-1.6-0.5-1.4-1 1zm-19.2 18.8c-0.3 1.5-0.2 3.3 0.3 4 0.5 0.6 0.9 1.6 1 2.2 0 0.6 0.7 1.1 1.5 1.3 1.2 0.1 1.6-0.7 1.6-3.8 0-2.9-0.4-4-1.5-4-0.8 0-1.7-0.6-1.9-1.2-0.2-0.7-0.6-0.1-1 1.5zm-102.8 8.6c0.1 1 1.3 1.7 3.2 1.9 1.6 0.1 3.2-0.2 3.5-0.8 0.3-0.6-0.1-1.3-0.7-1.7-0.7-0.3-2.4-0.7-3.7-0.8-1.7-0.2-2.4 0.3-2.3 1.4zm-43.8 17.4c-0.1 1.2 0.5 2.8 1.2 3.4 0.7 0.7 1.5 1.1 1.8 0.9 0.3-0.3 0.4-1.9 0.4-3.5-0.1-2.1-0.7-3.1-1.8-3.1-1 0-1.6 0.9-1.6 2.3zm18.5 1.6c-1.8 0.7-1.8 0.8-0.2 1.4 0.9 0.4 3.1 0.7 4.7 0.7 1.7 0 3-0.3 3-0.7 0-0.5-0.6-0.9-1.2-0.9-0.7-0.1-2-0.4-2.8-0.7-0.8-0.3-2.4-0.2-3.5 0.2zm-16.8 9.1c-0.4 2.7-1.1 5-1.7 5-0.5 0-1 1.1-1 2.5 0 1.4 0.5 2.5 1 2.5 0.6 0 1.4 1 1.9 2.3 0.5 1.3 2 2.4 3.7 2.8 1.6 0.3 4 0.5 5.4 0.4 1.4-0.1 4.3-0.5 6.5-0.9 2.8-0.5 4.5-1.5 5.6-3.4 1.4-2.5 1.4-3-0.2-6.7-1.3-3-1.8-3.5-2.1-2-0.2 1.4-1.2 2-3.8 2.1-2.5 0.1-3.6-0.3-3.8-1.5-0.1-0.9-1.1-1.9-2.2-2.3-1.1-0.5-2-1.7-2-2.8 0-1.1-0.4-2-1-2-0.5 0-1 0.9-1 2 0 1.1-0.7 2-1.5 2-0.9 0-1.5-0.8-1.4-1.9 0.1-1.1-0.3-2.2-0.8-2.5-0.6-0.3-1.3 1.6-1.6 4.4zm497.6 89.7c-1.3 0.2-2.2 0.9-2 1.6 0.2 0.6 1.7 1.4 3.3 1.5 1.6 0.2 3.7 1 4.7 1.8 1.5 1.2 1.8 1.1 2.8-0.8 0.6-1.3 0.8-2.9 0.5-3.5-0.3-0.7-2-1.2-3.8-1.1-1.8 0.1-4.3 0.4-5.5 0.5zm-1162.3 56c-0.7 0.2-1.3 1.1-1.2 1.9 0.1 0.8 0.8 1.6 1.4 1.8 0.7 0.2 3-0.1 5.1-0.7 2-0.7 3.7-1.5 3.7-1.9 0-0.5-1.1-0.8-2.5-0.8-1.4 0-3.1-0.2-3.8-0.4-0.6-0.3-1.9-0.2-2.7 0.1zm-0.5 28c-1.7 0.2-3.7 0.6-4.5 0.9q-1.5 0.4-0.5 1.5c0.6 0.6 2.8 0.8 5.2 0.5 2.9-0.4 4.3-1.1 4.3-2.1 0-0.8-0.3-1.4-0.8-1.4-0.4 0.1-2.1 0.4-3.7 0.6zm-76 76.3c-1.7 0.7-1.7 0.9-0.3 0.9 1 0.1 2.4 1.3 3 2.8 0.7 1.5 1.7 2.8 2.2 2.8 0.5 0 1.3-1.3 1.7-3 0.4-1.7 0.6-3.3 0.3-3.7-0.2-0.5-1.4-0.8-2.7-0.7-1.2 0-3.1 0.4-4.2 0.9zm1708.8 11.3c0 3.9 0.3 7.8 0.8 8.5 0.7 0.9 1.8 0.7 5.1-0.9 3.3-1.6 4-2.3 3.1-3.2-0.8-0.8-0.9-1.9-0.2-3.4 0.7-1.8 0.5-2.5-0.9-3.2-1.4-0.7-1.5-1.2-0.5-2.3 0.7-0.7 1-1.6 0.5-2.1-0.4-0.4-2.3-0.7-4.3-0.7h-3.5zm406.1 5.8c-1.4 1.7-2.6 3.6-2.5 4.3 0.1 0.6-1.1 2.3-2.5 3.7-1.5 1.3-3.1 3.6-3.7 5-0.6 1.3-1 4.4-0.9 6.7 0.1 3.6 0.8 4.9 4.7 8.8 2.4 2.4 4.7 4.5 5 4.5 0.2 0 2.8-1.7 5.7-3.6 2.9-2 5.7-4.4 6.2-5.3 0.5-0.9 0.9-4.6 0.8-8.1 0-3.6-0.4-8.1-0.8-10-0.3-2-1.2-4-1.8-4.5-0.7-0.6-1.6-1.8-1.9-2.8-0.4-1-1.8-1.7-3.1-1.7-1.5 0-3.5 1.2-5.2 3zm-407.9 18.2c-1.5 2.9-3.3 5.7-4.1 6.3-0.8 0.5-1.5 2.5-1.6 4.5-0.1 1.9-0.7 4.4-1.5 5.5-0.7 1-1.3 3.1-1.4 4.5 0 1.3 0.4 2.9 0.9 3.5 0.5 0.5 1.5 3.1 2.3 5.7 0.7 2.7 1.7 4.8 2.1 4.8 0.4 0 1.1 1.4 1.4 3.2 0.4 1.8 1.2 4.2 1.8 5.3 0.6 1.1 2.4 3.8 4.1 6 1.7 2.2 3.8 5.2 4.8 6.7 0.9 1.5 3.8 4.8 6.4 7.2 2.6 2.5 5.9 5.1 7.3 5.9 1.3 0.7 4 1.6 6 2 1.9 0.3 5.7 2.1 8.5 3.9 2.7 1.9 6.1 3.7 7.5 4 1.3 0.4 4 2 6 3.7 1.9 1.7 3.9 3.1 4.5 3.1 0.5 0 2.1-0.8 3.5-1.9 1.7-1.3 2.4-2.8 2.3-4.8 0-1.6-0.5-4-1.1-5.3-0.5-1.4-2.6-3.3-4.6-4.3-2-1-3.6-2.1-3.6-2.5 0-0.4-1.8-1.8-4-3-2.6-1.5-4-3-4-4.2 0-1.1-0.5-2.3-1-2.5-0.6-0.3-1.7-2.9-2.5-5.8-0.7-2.9-2-5.8-2.7-6.4-0.7-0.6-2-3-2.8-5.3-0.9-2.4-2.1-4.8-2.8-5.4-0.7-0.6-1.3-1.5-1.3-1.9 0.1-0.4-1.2-2.3-2.7-4.2-1.5-2-3.3-3.5-4-3.5-0.7 0-3.4-2.6-6.1-5.8-2.7-3.2-5.1-6.7-5.5-7.7-0.3-1.1-0.8-3.4-1-5-0.2-1.7-1-4.2-1.7-5.5-0.8-1.4-2.3-3.3-3.4-4.2-1.1-1-2.3-1.8-2.6-1.8-0.3 0-1.8 2.3-3.4 5.2zm116.9 12.8c-1.1 0.5-2.6 1.9-3.3 3.2-0.7 1.2-3.3 3.8-5.7 5.8-2.4 1.9-4.6 4.6-4.9 6-0.5 1.9 0.1 3.1 2.5 5.5 1.8 1.6 2.9 3.4 2.6 4-0.3 0.5 0.2 2 1.2 3.4 0.9 1.3 3.7 3.4 6.2 4.5 2.4 1.2 5.6 2.8 7 3.7 1.3 1 3.8 1.9 5.5 2.1 1.6 0.3 4.5 1 6.5 1.6 1.9 0.6 8.9 1.7 15.5 2.5 6.6 0.8 13.3 1.3 15 1.1 1.6-0.1 6.8-1 11.5-1.9 4.6-0.9 11.1-2.4 14.3-3.4 5-1.4 6.4-2.3 9-6 1.8-2.4 3.7-6.5 4.3-9 0.9-3.5 0.9-5.2 0-7-0.9-1.9-1.6-2.2-3.6-1.7-1.4 0.4-8.9 0.9-16.8 1.1-13.8 0.4-14.6 0.3-27.2-3-7.2-2-15.6-5-18.8-6.7-3.1-1.7-8-3.8-10.7-4.6-2.8-0.7-5.7-1.6-6.5-1.8-0.9-0.2-2.5 0-3.6 0.6zm287.8 43.5c-0.8 0.9-0.9 1.6-0.2 2 0.5 0.2 1.6 0.2 2.5 0 0.8-0.3 1.5-1.2 1.5-2 0-0.9-0.6-1.5-1.3-1.5-0.7 0-1.8 0.7-2.5 1.5zm-106.3 214.7c0 0.7 0.6 1.8 1.3 2.5 1 1 1.7 1 3.2 0 1-0.7 1.6-1.8 1.2-2.5-0.3-0.7-1.8-1.2-3.1-1.2-1.4 0-2.5 0.5-2.6 1.2zm-370.2 299.4c-1.5 0.2-2.7 0.6-2.7 0.9 0 0.2 1.5 2 3.5 4 2 2 4.1 3.2 5 3 0.8-0.3 2 0.1 2.7 1 0.7 0.8 1.6 1.5 2 1.5 0.4 0 0.8-1.1 0.8-2.3 0-1.2-0.6-3-1.3-3.9-0.7-0.8-2.4-2.3-3.7-3.2-1.4-0.9-2.8-1.6-3-1.5-0.3 0.1-1.8 0.3-3.3 0.5zm81.3 162.8c-1.4 0.8-3.7 3.1-5.1 5.2-1.4 2.1-2.9 5.7-3.2 7.9-0.5 3.1-0.2 4.4 1.3 6 1.1 1.1 2.5 1.7 3.2 1.3 0.7-0.3 3-3.9 5.1-8 2-4 3.8-8.7 3.9-10.3 0.2-1.9-0.3-3-1.3-3.2-0.8-0.2-2.6 0.3-3.9 1.1zm203.5 674.9c-3.3 0.7-7.6 2-9.5 3.1-2 1-6.7 4-10.5 6.6-3.9 2.6-10.8 8.2-15.5 12.6-4.7 4.3-12.3 11.6-17 16.1-4.7 4.5-8.9 8.3-9.3 8.3-0.4 0-3.3 2.7-6.5 6-3.1 3.4-10 10.5-15.2 15.8-5.3 5.3-13.1 13.5-17.5 18.2-4.4 4.6-9.7 10.7-11.9 13.5-2.2 2.7-6.8 7.9-10.2 11.5-3.4 3.5-9.1 9.8-12.6 14-3.5 4.1-7.5 9-8.8 11-1.4 1.9-5.4 6.9-9 11.1-3.6 4.2-9.7 11.6-13.5 16.4-3.9 4.8-7.4 9.6-7.8 10.6-0.4 1-1.2 1.9-1.7 1.9-0.6 0-2 1.6-3.2 3.7-1.1 2.1-3.5 5.5-5.2 7.6-1.7 2.1-6.1 7.2-9.6 11.5-3.6 4.2-7.6 9.5-9 11.7-1.3 2.1-4.2 6-6.5 8.5-2.2 2.5-6.7 7.6-10 11.4-3.3 3.8-6.9 8.2-7.9 9.9-1 1.8-2.4 3.4-3 3.8-0.6 0.3-3.8 4-7.1 8.2-3.3 4.1-8.5 10.8-11.5 14.7-3.1 4-7.4 9.3-9.7 11.9-2.2 2.5-5.8 6.6-8 9.1-2.2 2.4-5.5 6.7-7.4 9.4-1.9 2.8-7.2 9.3-11.8 14.5-4.6 5.3-8.7 10.6-9.2 11.8-0.5 1.2-1.4 2.3-1.9 2.3-0.6 0-2.8 2.9-5 6.5-2.2 3.5-6.8 9.3-10.3 12.8-3.4 3.5-7.1 8-8.2 9.9-1.1 1.9-4.1 6-6.5 9.2-2.5 3.2-6.3 7.6-8.4 9.9-2.2 2.3-6.1 7.3-8.8 11.2-2.6 3.8-7.3 10.1-10.4 14-3 3.8-6.7 8.8-8.2 11-1.5 2.1-2.9 4.2-3.2 4.5-0.3 0.2-2.8 3.1-5.5 6.5-2.8 3.3-6.1 6.9-7.5 8-1.3 1.1-3 3.5-3.8 5.5-0.8 1.9-3.2 5.5-5.3 8-2.1 2.4-3.9 4.8-3.9 5.2 0 0.4-1.9 3.1-4.3 6-2.3 2.9-4.5 5.5-4.8 5.8-0.4 0.2-1.5 2-2.5 4-1 1.9-2.2 3.9-2.6 4.5-0.5 0.5-1.9 2.4-3.1 4.1-1.2 1.7-4.3 5.9-6.7 9.3-2.5 3.4-7.6 9.9-11.4 14.4-3.8 4.5-11.9 13.1-18 19.2-6.2 6-17.2 16.8-24.7 24-7.4 7.2-17.8 16.6-23.3 21-5.4 4.4-11.2 8.7-13 9.7-1.7 1-4.5 3.2-6.1 4.9-1.7 1.7-5.3 4.5-8 6.2-2.8 1.7-8.5 5.5-12.8 8.4-4.2 2.9-8.5 5.2-9.5 5.2-0.9 0-2.2 0.5-2.9 1.3-0.6 0.7-2.8 2.1-5 3.1-2.1 1.1-4.5 1.7-5.3 1.4-1.3-0.4-1.4-1.8-0.7-8.4 0.5-4.3 0.9-9.4 1.1-11.3 0.1-2 0.9-5.6 1.8-8 0.8-2.5 2.5-9.5 3.7-15.5 1.2-6.1 3.3-14 4.6-17.5 1.3-3.6 2.6-8.1 3-10 0.4-2 1.1-4.2 1.4-5 0.4-0.9 1.4-2.9 2.3-4.5 0.8-1.7 4.5-8.9 8.2-16 3.6-7.2 7.2-15.6 8.1-18.8 0.8-3.2 1.5-6.9 1.5-8.2 0-1.4-0.9-4.4-2-6.5-1.1-2.2-2-5.3-2-6.8 0-1.5 0.9-4.1 2-5.7 1.1-1.7 2.4-3.7 2.9-4.5 0.5-0.9 1.2-2.8 1.5-4.3 0.3-1.5 1.2-2.7 2.1-2.7 0.8 0 1.5-0.5 1.5-1 0-0.6-0.5-1-1-1-0.6 0-1-0.6-1-1.3 0-0.7 0.6-1.9 1.4-2.7 0.8-0.9 2.6-5.1 4-9.5 1.5-4.4 3.1-8.9 3.5-10 0.5-1.1 1.2-2.8 1.5-3.8 0.3-1-0.1-7.8-0.9-15.2-1.2-10.2-2.1-14.7-3.9-18.3-1.4-2.6-3.5-5.8-4.8-7-1.3-1.2-5.7-3.4-9.8-4.8-6.4-2.2-8.7-2.5-15-2-5.2 0.3-10.5 1.6-17 4.1-5.3 1.9-11.8 4.9-14.5 6.5-2.8 1.6-5.7 2.9-6.5 2.9-0.9 0.1-3.3 1.3-5.5 2.8-2.2 1.4-5.2 3.6-6.5 4.9-1.4 1.2-5.2 3.6-8.5 5.4-3.3 1.8-7.2 4.2-8.7 5.4-1.4 1.1-6.2 4.4-10.5 7.4-4.3 2.9-11.2 7.5-15.3 10.2-4.2 2.7-9.8 6.7-12.5 8.9-2.8 2.2-5.5 4-6 4-0.6 0-2.2 0.9-3.5 2-1.4 1.1-4.2 3.2-6.2 4.8-2.1 1.5-8.2 6.4-13.6 10.8-5.4 4.4-11.4 9.1-13.2 10.5-1.9 1.3-4.8 3.7-6.5 5.2-1.7 1.6-3.3 2.8-3.5 2.8-0.3-0.1-2.6 2-5 4.5-2.5 2.5-5.9 5.3-7.5 6.1-1.7 0.9-6.6 4.8-11 8.8-4.4 3.9-8.4 7.6-8.8 8.3-0.4 0.7-1.3 1.2-2 1.2-0.7 0-5.1 3.3-9.7 7.3-4.7 4-9.7 8.2-11.2 9.3-1.4 1.1-7.1 5.6-12.5 10-5.4 4.5-11.2 9.4-13 11-1.7 1.6-5 4.3-7.3 6-2.2 1.6-7.1 5.4-10.8 8.5-3.7 3-8.1 6.2-9.7 7-1.7 0.8-4.8 2.9-7 4.6-2.2 1.8-4.6 3.3-5.3 3.3-0.7 0-1.2-0.6-1.2-1.4 0-0.9 0.4-2.3 0.9-3.3 0.5-1 1.6-4.1 2.5-7 0.9-2.9 1.6-6 1.6-7 0-1 0.7-4.9 1.6-8.7 0.8-3.9 2.9-10.1 4.5-13.8 1.6-3.7 2.9-7.5 2.9-8.5 0-1 0.9-3.4 2-5.5 1.1-2.1 2.6-6.1 3.4-9 0.8-2.9 3.4-9.7 5.8-15.2 2.4-5.5 5.1-11.2 6-12.5 0.8-1.4 2.6-5 3.8-8 1.2-3.1 3.1-7.7 4.3-10.4 1.2-2.7 3-5.6 4-6.5 0.9-0.9 1.7-2.4 1.7-3.4 0-1 0.4-2 1-2.2 0.5-0.3 1-1.6 0.9-2.8 0-1.2 1.2-3.4 2.6-4.7 1.5-1.4 3.6-4.4 4.7-6.5 1.1-2.2 2.4-4.3 2.8-4.5 0.4-0.3 1.7-2.5 2.8-4.8 1.2-2.3 2.6-4.2 3.2-4.2 0.5 0 1.4-1.6 2-3.5 0.5-2 1.5-3.9 2.2-4.3 0.7-0.4 2.4-2.3 3.9-4.2 1.4-2 5.1-6.2 8.2-9.5 3.1-3.4 5.6-6.7 5.6-7.5 0-0.9 0.7-2.2 1.6-3 0.8-0.9 1.8-3.1 2.1-5 0.3-2 0.9-4.3 1.4-5.3 0.5-1 1-3.6 1-5.7 0-2.3-0.7-4.7-1.5-5.5-0.9-0.9-2.3-1.8-3.3-2.1-0.9-0.3-2.9-2.2-4.3-4.2-1.4-2.1-4.5-4.8-7-6-3.3-1.7-6.5-2.3-12.5-2.5-7.5-0.2-8.2-0.1-11.2 2.5-1.8 1.5-3.8 2.8-4.5 2.8-0.7 0-4.4 2.9-8.2 6.5-3.9 3.6-8.8 8-11 9.9-2.2 1.9-7.2 6.3-11 9.7-3.9 3.5-7.9 7.1-9 8-1.1 1-4.5 3.8-7.5 6.2-3.1 2.4-7.3 5.3-9.5 6.4-2.2 1.1-5.4 3.7-7 5.8-1.7 2-4.4 4.2-6 4.9-1.7 0.7-4.2 2.3-5.5 3.5-1.4 1.3-4.3 3.4-6.5 4.8-2.2 1.4-8.5 6.2-14 10.6-5.5 4.4-13.4 11.1-17.5 14.7-4.2 3.7-9 7.4-10.8 8.3-1.8 0.9-3.2 2.1-3.2 2.7 0 0.5-5.5 5.3-12.1 10.7-6.7 5.4-14 11.3-16.3 13.1-2.3 1.9-5.7 4.9-7.6 6.8-2 1.9-5.4 4.6-7.8 5.9-2.3 1.4-4.2 2.8-4.2 3.2 0 0.4-2 1.9-4.5 3.3-4.1 2.3-4.6 2.3-7.1 1-1.5-0.9-6.6-5.4-11.4-10.1-4.7-4.7-11.4-11-14.9-14-3.6-3-7.5-6.5-8.8-7.7-1.3-1.2-2.7-2.3-3.1-2.3-0.4 0-5-3.8-10.2-8.5-5.3-4.7-9.9-8.5-10.3-8.5-0.4 0-3.5-2.2-7-5-3.4-2.8-7.1-5.8-8.2-6.6-2-1.5-2-1.6 1-4.2 1.6-1.5 4.8-4.8 7.1-7.2 2.2-2.4 6.7-6.7 10-9.4 3.2-2.8 8.9-8 12.7-11.5 3.8-3.6 13.2-12.9 21-20.7 7.8-7.7 16-15.4 18.2-17 2.2-1.6 4.5-3.5 5.1-4.3 0.6-0.9 1.8-2.2 2.6-3 0.9-0.9 6-5.6 11.4-10.5 5.3-5 12.5-11.7 15.9-15 3.4-3.4 13.9-13.5 23.3-22.5 9.3-9.1 20.3-19.7 24.3-23.6 4.1-3.8 10.1-9.9 13.5-13.5 3.3-3.5 8.5-8.6 11.5-11.3 2.9-2.6 6.5-6.3 7.9-8.1 1.3-1.8 3.4-3.8 4.5-4.4 1.1-0.6 2.8-1.4 3.7-1.9 1-0.4 2.2-1.9 2.7-3.2 0.4-1.4 6.2-8.2 12.7-15 6.5-6.9 13.6-14.3 15.7-16.5 2.1-2.2 3.8-4.3 3.7-4.5 0-0.3 2.8-3.3 6.2-6.6 3.5-3.3 9.4-9.6 13.3-13.9 3.8-4.4 8.8-10 11-12.5 2.2-2.5 6.5-7.4 9.5-11 3-3.5 6.8-7.8 8.5-9.6 1.6-1.7 4.7-5.3 6.7-7.8 2.1-2.6 3.8-4.9 3.8-5.1 0-0.3 1.4-1.8 3.2-3.3 1.7-1.5 4.6-5 6.3-7.7 1.7-2.8 4.5-6.4 6.1-8.1 1.6-1.7 3.5-3.9 4.4-5 0.8-1.1 2.8-3.9 4.5-6.3 1.6-2.3 3.3-4.2 3.7-4.2 0.4 0 1.2-1.4 1.7-3.2 0.5-1.8 1.7-3.6 2.5-4 0.9-0.4 2.3-2.4 3.3-4.5 0.9-2.1 2.2-4.4 2.9-5.2 0.6-0.9 2-3.1 3.1-5 1.1-2 2.5-5.1 3.1-7 0.6-2 2-4.4 3.1-5.5 1.8-1.8 2-3 1.5-10.5q-0.5-8.5-2.5-12.5c-1.1-2.2-3.8-6-6-8.3-2.8-3-5.6-4.8-9.7-6.2-3.1-1-8.7-2.2-12.2-2.7-3.6-0.4-11.3-0.8-17-0.9-5.8 0-11 0.2-11.5 0.6-0.6 0.4-2.4 0.9-4 1.2-1.7 0.3-5.7 1.3-9 2.2-3.3 1-7.4 2.2-9 2.6-1.7 0.5-6 1.7-9.5 2.8-3.6 1-7.4 2.2-8.5 2.6-1.1 0.4-5 1.9-8.5 3.3-3.6 1.4-11.7 5-18 8-6.4 3-12.4 5.9-13.5 6.4-1.1 0.4-4.8 2.5-8.2 4.6-3.5 2.1-9.3 5.7-13 8-3.8 2.4-9.3 6.1-12.3 8.3-3.1 2.2-7.8 5.6-10.5 7.5-2.8 1.9-7.1 4.9-9.5 6.7-2.5 1.8-6.1 4.9-8.1 6.8-1.9 1.9-4.6 4.4-6 5.5-1.3 1.1-5.6 4.5-9.4 7.6-3.9 3.1-8.2 7.1-9.6 9-1.5 1.8-4.3 4.3-6.3 5.4-2 1.1-3.6 2.4-3.6 3 0 0.5-7.6 8.6-16.9 18-9.2 9.3-19.7 19.7-23.2 23.1-3.5 3.3-12.3 12.3-19.6 20-7.2 7.6-15.8 17-19 20.9-3.3 3.8-8.9 10.8-12.5 15.5-3.6 4.6-7.8 9.9-9.4 11.6-1.6 1.7-4.8 5.3-7.2 8-2.3 2.7-6.2 7.3-8.7 10.4-2.5 3-6.4 8.3-8.5 11.7-2.2 3.4-4.4 6.2-4.8 6.2-0.4 0-3.7 3.9-7.4 8.8-3.7 4.8-8.5 11.1-10.8 14-2.2 2.9-4.7 6.6-5.5 8.3-0.9 1.6-2.3 3.3-3.3 3.8-0.9 0.5-3.1 2.8-4.7 5.2-1.7 2.3-4.5 5.7-6.3 7.6-1.8 1.8-3.2 4-3.2 4.9 0 0.8-0.9 1.9-2 2.5-1.1 0.5-2.8 2.4-3.6 4.2-0.9 1.8-4 6.9-7 11.3-2.9 4.4-6.9 11.7-8.8 16.2-2 4.5-3.6 8.7-3.6 9.3 0 0.5-1 3.1-2.2 5.7-1.1 2.6-2.6 7.7-3.1 11.3-0.8 4.4-0.8 8.7-0.1 13.5 0.7 4.4 1.9 8.2 3.5 10.4 1.3 1.9 3 4.2 3.8 5 0.7 0.9 1.7 2.6 2.2 3.8 0.5 1.2 2 2.7 3.4 3.3 1.3 0.5 3.1 2.3 4 4 0.8 1.6 2.4 3.4 3.5 4 1.1 0.5 2 1.4 2 2 0 0.5-1.5 2.3-3.3 3.9-1.8 1.7-5.9 5.2-9.2 7.8-3.4 2.6-7.6 6.3-9.5 8.3-2 1.9-4.9 4.5-6.5 5.6-1.7 1.2-4.3 3.2-5.9 4.5-1.6 1.3-3.9 3.3-5 4.4-1.2 1.1-4.4 3.8-7.2 6-2.7 2.1-7 5.8-9.4 8-2.5 2.3-9.3 8.4-15 13.6-5.8 5.2-13.5 11.7-17 14.4-3.6 2.8-9.4 7.7-12.8 11-3.5 3.3-8 7.4-10 9.2-2.1 1.7-4.3 3.2-5 3.2-0.7 0-2.7 1.6-4.5 3.4-1.8 1.9-5 4.6-7.2 6.1-2.2 1.5-4.9 3.6-6 4.7-1.1 1-4.5 4.2-7.6 7.1-3 2.9-9.3 8.6-14 12.8-4.6 4.1-10.5 9.1-12.9 11-2.5 1.9-6.1 5-8 7-2 1.9-5.7 5.1-8.4 7-2.6 1.9-7 5.5-9.8 8-2.8 2.4-6.5 5.7-8.2 7.3-1.7 1.6-4.7 3.9-6.6 5.1-2 1.2-6.9 5.1-11.1 8.6-4.2 3.6-10 8.3-12.9 10.5-2.9 2.1-8 6.5-11.4 9.7-3.4 3.1-7 6.3-8.1 7.1-1.1 0.8-3.6 2.9-5.5 4.7-2 1.8-6.7 5.3-10.5 7.9-3.9 2.6-7.9 5.8-9 7.1-1.1 1.4-5 4.6-8.5 7.3-3.6 2.7-10.4 8.5-15 13-4.7 4.5-10.4 9.2-12.5 10.6-2.2 1.3-5.2 3.5-6.6 5-1.4 1.4-4.3 4.1-6.5 6.1-2.1 1.9-7.2 6-11.2 9.2-4 3.2-9.7 7.9-12.6 10.5-3 2.6-7.7 6.8-10.6 9.3-2.9 2.4-6.8 5.6-8.6 7-1.9 1.3-6.1 4.5-9.5 7-3.3 2.4-8.5 6.7-11.4 9.5-3 2.7-7.8 6.9-10.7 9.3-2.9 2.4-7.1 5.7-9.3 7.4-2.2 1.6-6.1 4.3-8.5 5.9-2.5 1.6-6.3 4.7-8.5 6.8-2.2 2.1-5.8 4.7-8 5.9-2.2 1.1-4.9 3-6 4.2-1.1 1.2-3.4 2.8-5 3.5-1.7 0.8-5.6 3.4-8.7 5.7-3.1 2.3-9.2 5.9-13.5 7.9-4.3 2-10.8 4.5-14.3 5.6-4.5 1.4-9.9 2-17 2.2-5.8 0.1-12.5 0.7-14.9 1.3-3.3 0.9-5.1 2.3-7.2 5.3-2.3 3.2-2.8 4.9-2.6 9.1 0.1 3.5 0.8 5.8 2.2 7.4 1.1 1.2 2.4 3.1 3 4.3 0.5 1.1 2.6 2.5 4.6 3.1 2 0.6 4.5 1.8 5.5 2.7 1 0.9 3.9 2.6 6.4 3.7 2.4 1.1 7.8 2.5 12 3.2 4.1 0.6 9.9 0.9 13 0.6 3-0.4 9.3-1.6 14-2.8 4.6-1.1 10.9-3.3 14-4.8 3-1.5 6.6-3.1 8-3.5 1.3-0.4 5.4-2.6 9-4.9 3.5-2.3 7.4-4.7 8.5-5.4 1.1-0.6 4.7-2.8 8-4.7 3.3-2 6.8-4.1 7.9-4.8 1-0.7 2.8-2.1 4.1-3.2 1.2-1.1 5.7-4.4 10.1-7.3 4.3-2.8 9.8-6.7 12.1-8.5 2.3-1.8 6.1-5 8.5-7.1 2.3-2 6.3-5.2 8.8-6.9 2.4-1.8 5.1-3.8 6-4.5 0.8-0.7 4-3.2 7-5.5 3.1-2.3 8.6-6.6 12.3-9.5 3.7-2.9 6.7-5.6 6.7-6 0-0.4 1.5-1.6 3.5-2.7 1.9-1.1 3.7-2.6 4-3.3 0.3-0.7 2.6-2.7 5.2-4.4 2.6-1.8 6.9-5.3 9.6-7.8 2.6-2.5 6.3-5.4 8.2-6.5 1.8-1.1 5.3-4.2 7.6-6.9 2.4-2.6 6.3-5.9 8.6-7.2 2.4-1.4 4.6-3 5-3.7 0.4-0.7 3-3.1 5.7-5.2 2.8-2.2 5.9-4.9 7.1-6 1.2-1.1 3.6-3.2 5.4-4.5 1.8-1.4 4.5-3.6 5.9-4.9 1.5-1.3 4.7-4.2 7.2-6.5 2.6-2.3 8.5-7.3 13.3-11.1 4.8-3.9 13.1-10.7 18.5-15.1 5.3-4.4 10.8-9.1 12.3-10.5 1.4-1.3 4-3.1 5.8-3.9 1.7-0.9 3.4-2.3 3.6-3.3 0.3-1 1.5-2.3 2.7-2.9 1.3-0.6 4.1-2.9 6.3-5 2.2-2 5-4.6 6.2-5.6 1.2-0.9 3.6-2.9 5.4-4.2 1.8-1.4 5.3-4.3 7.8-6.4 2.5-2.2 4.8-4.2 5.1-4.6 0.2-0.4 4.3-3.7 9-7.5 4.6-3.8 11.4-9.4 14.9-12.4 3.6-3.1 10.6-9.2 15.6-13.6 5-4.4 12.2-10.5 15.9-13.5 3.7-3.1 7.7-6.4 8.9-7.4 1.2-1 3.7-3.1 5.7-4.5 1.9-1.5 3.7-2.9 4-3.2 0.2-0.3 4.9-4.4 10.2-9.2 5.4-4.8 10.2-8.7 10.8-8.7 0.5 0 4.7-3.6 9.2-7.9 4.6-4.3 13-12 18.8-17.1 5.7-5.2 12-10.4 14-11.6 1.9-1.2 5.1-3.9 7.1-6.1 2-2.1 4.8-4.9 6.2-6.1 1.5-1.2 2.9-2.2 3.2-2.2 0.2 0 4.7-4.2 9.8-9.3 5.1-5.1 12.4-11.9 16.2-15.2 3.7-3.4 7.8-6.9 9-8 1.2-1.1 4-3.5 6.3-5.3l4.2-3.2c8.1 5.3 12 8.3 14 10.1 1.9 1.8 3.9 3.3 4.5 3.4 0.5 0 3.9 2.1 7.5 4.6 3.5 2.5 8.9 6.8 12 9.5 3 2.6 5.8 5.4 6.2 6.1 0.4 0.7 3.4 3 6.5 5.2 3.2 2.1 6.5 4.7 7.4 5.7 0.9 1 2.8 2.8 4.3 3.9 1.5 1.1 3.3 3.1 3.9 4.4 0.6 1.4 2.3 3.1 3.7 3.8 1.3 0.7 3.5 2.5 4.9 4 2.1 2.5 2.2 3 1 5-0.8 1.3-1.7 2.3-1.9 2.3-0.3-0.1-2.1 1.2-4 2.7-1.8 1.5-6.1 5.5-9.5 8.8-3.3 3.3-8 7.3-10.4 9-2.5 1.6-6.5 5.3-9 8.1-2.6 2.8-5.8 5.7-7.1 6.4-1.4 0.7-6.1 4.3-10.5 8-4.4 3.7-10.1 8.9-12.7 11.6-2.5 2.7-6.1 5.8-7.9 6.9-1.9 1.1-4.6 2.7-6.1 3.7-1.6 1-4.1 2.9-5.6 4.2-1.5 1.4-3.9 3-5.2 3.5-1.4 0.6-3.3 2.4-4.3 4.1-0.9 1.6-2.1 3-2.5 3-0.4 0-3.7 2.7-7.2 6-3.6 3.3-7.8 7-9.3 8.2-1.5 1.2-5.2 4.5-8.2 7.3-3 2.7-7.4 6.6-9.7 8.6-2.4 2.1-5.8 5.1-7.6 6.8-1.8 1.7-3.5 3.1-3.7 3.1-0.3 0-2 1.4-3.8 3.2-1.9 1.8-6.9 5.9-11.2 9.3-4.4 3.3-11.3 8.8-15.5 12.2-4.1 3.5-8.4 7.1-9.5 8.1-1.1 1-6.2 6.2-11.3 11.5-5.1 5.3-9.6 9.6-10 9.6-0.4 0-1.2 0.8-1.7 1.9-0.6 1-4.2 4.5-8 7.8-3.9 3.2-7.8 6.7-8.7 7.8-1 1.1-1.8 2.6-1.8 3.3 0 0.7-0.7 1.6-1.4 2-0.8 0.4-4 3-7.1 5.8-3.2 2.7-13.1 12.4-22.2 21.5-10.2 10.2-18.4 19.5-21.7 24.5-3 4.4-11.7 14.5-19.5 22.5-7.7 7.9-14.1 14.9-14.1 15.5-0.1 0.5-1.8 3.2-3.9 6-2.1 2.7-4.8 7.1-6 9.7-1.2 2.6-2.6 4.8-3.1 4.8-0.6 0-1 0.6-1 1.5 0 0.8-0.9 2.2-2 3.2-1.1 1-2 2.3-2 3 0 0.7-1.4 3.8-3 7-1.7 3.2-3.9 7.8-5 10.3-1.1 2.4-3.2 6.5-4.6 9-1.3 2.4-2.5 5.5-2.5 6.7 0.1 1.2-0.4 2.5-0.9 2.8-0.6 0.2-1.3 2.1-1.6 4.2-0.3 2.1-0.7 5.3-0.9 7.3-0.3 1.9-0.8 6.4-1.1 10-0.6 4.8-0.3 7.8 0.9 11.7 0.9 2.9 1.7 5.8 1.6 6.5 0 0.7 0.9 2.2 2.1 3.3 1.1 1.1 1.8 2.5 1.5 3.2-0.3 0.7 0 1.2 0.7 1.2 0.7 0 2.6 0.6 4.3 1.4 2.8 1.4 2.9 1.5 1 2.6-1.9 1.1-1.8 1.1 0.7 0.9 1.8-0.3 2.8 0.2 3.2 1.4 0.3 1 2.1 2.7 4.1 3.8 1.9 1.1 3.5 2.5 3.5 3.2-0.1 0.9 1 1.1 4 0.5 2.5-0.5 3.8-0.4 3.5 0.3-0.3 0.5-0.1 1 0.5 1 0.5 0 1.2-0.6 1.5-1.3 0.4-1 0.6-1 1 0 0.3 0.9 3.1 1.2 9.2 1.2 4.8 0 13.3-0.6 18.8-1.5 5.5-0.8 12.6-2.4 15.7-3.5 3.2-1.1 6.4-1.9 7.3-1.9 0.8 0 4.8-1.6 9-3.5 4.1-2 7.9-3.5 8.5-3.5 0.5 0 3.1-1 5.7-2.1 2.6-1.2 7.6-3.6 11-5.3 3.4-1.7 8.3-4.2 10.8-5.4 2.4-1.2 4.5-2.7 4.5-3.2 0-0.6 1.1-1.3 2.5-1.5 1.3-0.3 3.9-1.8 5.6-3.3 1.8-1.5 5.7-4.2 8.8-6 3.1-1.7 7.4-4.2 9.6-5.3 2.2-1.2 4.3-2.7 4.7-3.3 0.4-0.6 2-1.8 3.6-2.6 1.6-0.9 6.2-3.8 10.3-6.4 4-2.7 8-5.2 8.9-5.5 0.8-0.3 2.8-1.6 4.5-2.9 1.6-1.4 4.5-3.2 6.5-4.1 1.9-0.8 4-2 4.7-2.6 0.7-0.6 2.5-2 4-3.2 1.5-1.2 6-5 10-8.3 4-3.3 8.6-6.7 10.3-7.5 1.6-0.9 4-2.6 5.3-3.8 1.2-1.2 3.9-3.7 6-5.5 2-1.8 4.1-3.2 4.7-3.2 0.5 0 1.3-0.2 1.7-0.3 0.4-0.2 3.2-2.2 6.3-4.5 3-2.3 7.3-5.9 9.5-8 2.2-2 5.8-5.1 8-6.7 2.2-1.6 5.1-3.9 6.5-5.2 1.3-1.3 5.7-5 9.7-8.3 4-3.3 8.5-6.7 10-7.4 1.5-0.8 4.9-3.6 7.4-6.3 2.5-2.7 9-8.7 14.4-13.3 5.4-4.7 12.3-11 15.4-14 3.1-3.1 7-6.7 8.6-8.1 1.6-1.4 5.2-5 8-8 2.7-3 6.3-6.6 8-8.1 1.6-1.4 6.2-6.1 10.1-10.5 3.9-4.3 9.3-10.4 12-13.5 2.7-3.1 6.4-7.5 8.4-9.8 1.9-2.4 5-6.4 7-9.1 1.9-2.6 5-7.4 7-10.6 1.9-3.1 4.4-6.7 5.6-7.8 1.1-1.1 2.9-4.1 3.8-6.5 1-2.5 3.2-6.6 4.9-9 1.8-2.5 4.1-6.6 5.3-9 1.2-2.5 2.6-5.8 3.2-7.3 0.7-1.5 1.2-4.3 1.2-6.2 0-2 0.3-3.5 0.7-3.5 0.4 0 1.3-1 1.9-2.3 0.6-1.2 1.8-6.3 2.7-11.2 0.9-5 2.3-14.7 3-21.5 0.9-8.3 1-13.6 0.4-15.5-0.5-1.7-1.5-7.3-2.2-12.5-0.7-5.3-2.9-14-4.8-19.5-1.9-5.5-4.9-12.4-6.6-15.3-1.7-2.9-3.1-6-3.2-7 0-1 4-5.4 8.8-9.8 4.8-4.5 10.1-9 11.8-10 1.6-1.1 4.1-3 5.5-4.4 1.3-1.4 4.2-3.9 6.4-5.6 2.1-1.6 5.5-4.4 7.5-6.2 1.9-1.8 3.9-3.3 4.3-3.3 0.4 0 2.5-1.6 4.5-3.7 2.1-2.1 5.8-5.3 8.3-7.2 2.5-2 4.6-3.9 4.7-4.3 0.2-0.4 0.7-0.7 1.3-0.7 0.5 0 2.9-1.5 5.2-3.3 2.4-1.7 5.6-4.4 7.3-5.8 1.6-1.5 3.6-2.9 4.5-3.3 0.8-0.3 1.8-0.2 2.2 0.2 0.4 0.3-0.1 2-1.1 3.7-1 1.6-3.2 5.4-4.8 8.5-1.7 3-3.4 7.9-3.9 11-0.4 3.1-1.6 6.2-2.6 7.2-1 1-1.8 3.1-1.8 5 0 1.8-0.4 3.7-0.9 4.3-0.5 0.5-1.9 4.3-3.1 8.5-1.3 4.1-2.9 9.3-3.8 11.5-0.8 2.1-1.2 5.1-0.9 6.5 0.4 1.4 0 3.3-0.8 4.5-0.7 1.1-1.6 4.4-1.9 7.5-0.4 3-1.1 7.9-1.6 11-0.6 3-1.2 10-1.4 15.5-0.3 7 0 10.7 0.9 12.5 0.7 1.3 1.6 3.4 2.1 4.5 0.4 1.1 0.6 2.3 0.5 2.7-0.1 0.4 2.7 4.6 6.1 9.2 3.8 5.2 7.7 9.3 10 10.5 2.1 1.1 4.9 2.1 6.3 2.1 1.3 0 4.4 0.8 6.7 1.8 3.7 1.6 5.7 1.7 14.8 1.1 5.7-0.4 12-1.1 14-1.5 1.9-0.4 4.4-1.5 5.5-2.4 1.1-0.9 5.1-3.2 8.8-5.1 3.8-1.9 7.8-4.5 9-5.7 1.2-1.3 2.7-2.3 3.4-2.3 0.7 0 3.2-1.8 5.5-4.1 2.4-2.2 6.1-5.2 8.3-6.6 2.2-1.4 8.2-6.2 13.5-10.6 5.2-4.4 10.2-8.8 11.2-9.6 0.9-0.9 2.9-2.5 4.5-3.7 1.5-1.2 5.6-4.6 9.1-7.5 3.5-2.9 8.5-6.9 11.1-8.8 2.7-2 8.1-6.6 12.2-10.2 4.1-3.7 8.8-7.8 10.5-9 1.8-1.3 5.5-4.2 8.4-6.3 2.9-2.2 6-5 6.9-6.2 0.8-1.2 6.1-5.8 11.6-10.2 5.5-4.4 11.1-9 12.5-10.1 1.3-1.2 8-6.5 14.7-11.8 6.7-5.4 14.1-11.1 16.4-12.7 2.2-1.7 6.2-4.6 8.7-6.5 2.6-1.8 7.6-5.9 11.3-9 3.6-3 8.5-7.1 10.9-9 2.3-2 5.4-4.2 6.9-5 1.4-0.7 3.2-2.1 4.1-2.9 0.8-0.8 2.9-2.1 4.7-2.8 1.8-0.7 4-2.2 5-3.3 0.9-1.1 4.2-3.4 7.2-5.1l5.6-3.1c0.5 3.7-1.7 9-4.9 15.2-3 5.7-7.3 13.4-9.5 17-2.3 3.5-5 8-6 10-1 1.9-3.4 5.7-5.2 8.5-1.8 2.7-4.6 6.4-6.1 8.2-1.6 1.8-2.8 3.8-2.8 4.5 0 0.7-1.4 2.8-3.1 4.8-1.6 1.9-4.6 5.9-6.6 9-2 3-6.8 9.7-10.7 15-3.9 5.2-7.7 9.8-8.4 10.2-0.7 0.4-2.4 3.3-3.9 6.5-2.1 4.6-2.5 6.6-2 10 0.4 2.3 1.9 6.8 3.4 10 1.4 3.2 3.8 7 5.2 8.5 1.4 1.5 3 2.8 3.6 2.8 0.5-0.1 2.5 1.5 4.5 3.5 1.9 1.9 5 4 7 4.7 1.9 0.6 4.3 1 5.2 0.9 1-0.1 2.2 0.5 2.8 1.4 0.6 1 0.6 3.6-0.3 8.2-0.8 4.3-1 11.4-0.7 19.8 0.5 12.1 0.7 13.3 3.5 17.9 1.6 2.8 4.3 6.4 6 8 1.6 1.7 5 4.4 7.5 6.1 2.5 1.7 6 3.8 8 4.7 1.9 0.9 5.3 2.2 7.5 2.9 2.4 0.8 9.1 1.3 17.5 1.3 12.7 0 13.9-0.1 20.5-2.9 3.8-1.6 9.7-4.5 13-6.4 3.3-1.9 8-4.6 10.5-5.9 2.4-1.4 7.4-4.4 11-6.7 3.5-2.4 8.3-5.9 10.5-7.9 2.2-2 4.3-3.6 4.7-3.6 0.4 0 3.2-2.3 6.3-5l5.5-5c2.9 3.4 6.1 6.1 9.1 8.1 4.5 3 7 3.8 15.9 5.3 9.7 1.6 11.3 1.6 21.5 0.1 6-0.9 11.4-2 11.9-2.6 0.5-0.5 1.7-1 2.5-1 0.9 0 3.8-1.1 6.6-2.5 2.7-1.3 5.5-2.4 6.2-2.4 0.7 0 5-2 9.5-4.3 4.6-2.4 10.4-5.8 13-7.5 2.6-1.8 5.1-3.2 5.5-3.2 0.4 0 1.9-0.6 3.3-1.3 1.4-0.7 4.1-2.5 6-4.1 1.9-1.5 7.2-5.2 11.7-8.2 4.6-3 8.7-5.4 9.3-5.4 0.5 0 3.1-1.9 5.7-4.1 2.6-2.2 5.8-4.9 7-6 1.3-1.1 2.6-1.9 3-1.9 0.4 0 3.7-2.2 7.3-5 3.5-2.8 8.4-6.7 10.7-8.8 2.3-2.1 4.8-4 5.5-4.2 0.7-0.3 2.4-1.6 3.8-2.9 1.4-1.3 3.9-3.3 5.7-4.5 1.7-1.2 6-4.5 9.5-7.4 3.4-2.9 7.6-6.4 9.3-7.8 1.6-1.4 5.9-5.3 9.5-8.7 3.5-3.3 8.2-7.2 10.3-8.7 2-1.4 3.7-2.9 3.7-3.3 0-0.4 1.2-1.4 2.7-2.2 1.5-0.7 5.8-4.2 9.5-7.7 3.7-3.5 7.7-7.3 9-8.5 1.2-1.2 2.8-2.9 3.5-3.7 0.7-0.9 2.1-1.7 3-1.7 1.5 0 1.7 0.6 1.1 4.8-0.4 2.6-1.4 5.4-2.2 6.3-0.8 0.8-1.8 2.8-2.1 4.5-0.4 1.6-1.8 5.3-3.1 8.2-1.3 2.9-2.4 5.9-2.4 6.8 0 0.8-0.4 1.6-0.8 1.8-0.4 0.2-1.1 2-1.5 4-0.4 2-1.6 4.4-2.6 5.4-1.1 1-2.2 2.9-2.6 4.3-0.3 1.3-1.7 3.6-3.1 5-1.4 1.3-3.1 4.6-4 7.2-0.8 2.6-1.9 5-2.4 5.3-0.6 0.2-1 2-1 4 0 2.1 1 5.1 2.8 7.7 1.5 2.3 3.3 5.2 4 6.3 0.6 1.1 1.7 3 2.4 4.4 0.7 1.3 2.8 4 4.6 6l3.3 3.6c20.6-0.2 21.7-0.4 26.6-3.1 3.4-1.9 5.9-4.2 7.3-6.7 1.1-2.1 2.4-3.7 3-3.7 0.5 0 1.4 1.2 1.9 2.7 0.5 1.5 2.9 4.9 5.5 7.5 2.5 2.6 4.6 5.2 4.6 5.8 0 0.5 0.8 1.8 1.7 2.8 1 1 3.3 2.7 5.3 3.8 1.9 1.1 5.9 2.8 9 3.7 3 0.9 7.6 1.7 10.2 1.7 3.2 0 7-1.1 11.3-3 3.5-1.7 6.5-3.5 6.5-4 0-0.6 1.9-1.9 4.2-3 2.4-1 6.1-3.8 8.3-6.1 2.2-2.3 5.2-5.5 6.7-7.1 1.5-1.6 2.8-3.3 2.8-3.8 0-0.6 0.9-2.3 2-3.8 1.2-1.5 5.1-6.9 8.8-11.9 3.7-5 7.4-10.4 8.4-12 0.9-1.6 3.6-5.5 6-8.8 4-5.5 4.8-6.1 13.4-9.5 5-1.9 9.7-4.1 10.5-4.7 0.7-0.6 6.1-3.2 11.9-5.6 5.7-2.5 11.6-4.8 13-5.2 1.3-0.5 4.6-1.9 7.2-3.2 2.6-1.3 5.4-2.3 6.3-2.3 0.8 0 5-1.7 9.2-3.6 4.3-2 10-4.7 12.8-6 2.7-1.4 5.3-2.4 5.7-2.4 0.4 0 3.7-1.4 7.3-3 3.5-1.7 7.3-3 8.2-3 1.2 0 3.2 3 6.5 9.7 2.7 5.4 4.8 10.3 4.8 11 0 0.7 0.4 1.3 1 1.3 0.5 0 1 0.6 1 1.5 0 0.8 1.2 2.6 2.7 4 1.5 1.3 3.2 2.4 3.8 2.4 0.5 0 1.9 0.9 3 2.1 1.1 1.1 5.6 3.2 10 4.7 6.9 2.4 9.5 2.7 20 2.7 6.9 0 15.4-0.7 20-1.6 4.4-0.9 9.5-2.2 11.5-2.8 1.9-0.7 4.4-1.6 5.5-2.1 1.1-0.5 4.7-1.9 8-3 3.3-1.1 9.2-4.3 13.2-7 4-2.7 7.5-4.9 7.8-4.9 0.2 0 3.8-2.1 8-4.5 4.1-2.5 7.8-4.6 8.2-4.6 0.4 0 3-1.8 5.8-3.9 2.7-2.1 6.3-4.2 8-4.7 1.6-0.4 4.5-2.2 6.5-4 1.9-1.8 8.6-6.7 15-10.8 6.3-4.1 13.3-8.8 15.5-10.4 2.2-1.7 5.2-3.5 6.7-4.1 1.5-0.6 2.8-1.4 2.8-1.8-0.1-0.4 2-2.3 4.6-4.2 2.6-2 5.4-4 6.3-4.5 0.9-0.6 3.7-2.6 6.1-4.5 2.5-1.9 4.9-3.9 5.5-4.6 0.5-0.6 2.1-1.7 3.5-2.5 1.3-0.7 5.2-3.4 8.5-6 3.3-2.5 8.2-5.6 11-6.8 2.7-1.3 7.1-4 9.7-6.2 2.6-2.2 5.1-4 5.5-4 0.4 0 3-2 5.8-4.4 2.7-2.5 6.1-4.7 7.5-5 1.3-0.3 3.6-1.6 5-3.1 1.3-1.4 4-3.4 6-4.4 1.9-1 5.3-3.4 7.5-5.5 2.2-2 4.5-3.6 5.2-3.6 0.7 0 1.3-0.4 1.3-0.9 0-0.6 2.1-2.5 4.7-4.3 2.6-1.8 5.7-3.8 6.8-4.5 1.1-0.6 3.4-1.9 5.2-2.7 1.8-0.9 3.4-2 3.5-2.6 0.2-0.6 2.5-2.4 5.3-4 2.7-1.6 6.5-3.8 8.5-4.7 1.9-1 5.4-3 7.7-4.5 2.4-1.5 4.6-2.8 5-2.8 0.4 0 3.2-1.8 6.3-4.1 3-2.3 9.7-6.4 15-9.1 5.2-2.6 9.9-4.7 10.5-4.5 0.5 0.2 1.8-0.6 2.7-1.9 1-1.3 2.4-2.3 3.3-2.3 0.8 0 3.5-1.4 6-3 2.4-1.7 4.9-3 5.5-3 0.5 0 3.1-2.1 5.7-4.6 2.6-2.5 5.1-4.5 5.5-4.5 0.4 0 2.5-0.7 4.5-1.6 2.1-1 4-2.1 4.3-2.4 0.2-0.4 2.9-1.8 5.8-3.1 2.9-1.3 5.2-2.7 5.2-3.1 0-0.4 2.6-2 5.7-3.4 3.2-1.5 6.4-3.4 7.3-4.2 0.8-0.7 3.6-2.3 6.3-3.5 2.7-1.2 4.7-2.8 4.7-3.6-0.1-0.9 0.9-2.1 2.2-2.7 1.2-0.7 3.8-1.5 5.8-1.8 1.9-0.4 4-1.4 4.6-2.4 0.9-1.2 0.9-1.8 0-2.4q-1.1-0.7 0.6-0.7c1 0 2.2-0.9 2.8-2 0.5-1.1 2.2-2.3 3.7-2.5 1.5-0.3 4.6-1.8 6.8-3.5 2.2-1.6 5.2-4 6.7-5.2 1.5-1.3 2.7-2.9 2.8-3.6 0-0.7 0.6-1.5 1.5-1.7 0.8-0.3 1.5-1.6 1.5-2.8 0-1.5 1.1-2.8 3.2-3.8 1.8-0.9 3.4-2.5 3.6-3.5 0.1-1.1 1.9-3.1 4-4.4 2-1.4 3.9-2.8 4.2-3.1 0.2-0.3 2-1.6 3.8-3 2.3-1.7 3-2.8 2.2-3.4q-1-1.1-5.3 0.3c-3.5 1.1-4.6 1.1-6.5 0-2-1.2-3-1-8.5 1.4-4.5 2.1-6.3 2.5-6.6 1.5q-0.3-1.2-1.6 0.8c-0.7 1.1-2.8 2.2-4.6 2.6-1.9 0.4-5.9 1.6-8.9 2.7-3.2 1.1-7.4 3.8-9.8 6.1-2.3 2.2-4.2 4.4-4.2 4.8 0 0.4-2.6 1.1-5.8 1.5-3.1 0.5-7.8 1.7-10.2 2.8-2.5 1.1-7.3 3.4-10.8 5-5.2 2.5-6.5 2.7-7.9 1.7-1.5-1.1-1.6-1-1 0.5 0.5 1.3-0.6 2.8-4.5 6-4.4 3.7-5.3 4.1-7 3-1-0.7-2.8-1.3-4.1-1.3-1.2 0-3.4 0.9-4.7 2-2.2 1.7-2.3 2.2-1 3 0.8 0.6 1.1 1 0.7 1-0.4 0-1.1 0.2-1.5 0.4-0.4 0.2-1.4 0.6-2.2 0.9-0.9 0.3-2.9 0.9-4.5 1.3-1.7 0.3-4 1.7-5.3 3q-2.2 2.5-5.5 2.4c-1.8 0-4.4 0.9-5.7 1.9-1.4 1.1-4.1 2.7-6 3.6-2 0.9-4.9 2.4-6.5 3.2-1.7 0.9-5.3 3.1-8 4.9-2.8 1.8-6.2 3.6-7.5 4-1.4 0.4-4.8 2-7.5 3.7-2.8 1.6-6.9 4.1-9.1 5.6-2.2 1.4-5.7 3.7-7.8 4.9-2 1.2-3.6 2.6-3.6 3 0 0.4-3 2.1-6.7 3.7-3.8 1.6-12 6-18.3 9.8-6.4 3.7-12.4 6.8-13.5 6.8-1.1 0-3-1-4.2-2.3-1.2-1.2-4.3-3.2-7-4.5-2.7-1.2-8.9-3.7-13.8-5.6-5-1.8-11.7-4.2-15-5.1-3.3-1-7.3-2.6-8.8-3.7-1.5-1-3-1.8-3.2-1.8-0.3 0-2.9-1.1-5.8-2.4-2.9-1.3-6.8-2.9-8.7-3.7-2-0.7-7.6-3.8-12.5-6.8-5-3-11-6.3-13.4-7.5-2.4-1.2-4.6-2.5-4.8-2.9-0.2-0.4 0.3-1.4 1.2-2.2 0.8-0.9 1.5-1.9 1.4-2.3 0-0.4 1.5-2.1 3.3-3.7 1.9-1.7 4.7-4.9 6.3-7 1.6-2.2 4.2-5.6 5.9-7.5 1.6-2 4.7-4.8 6.8-6.3 2.1-1.5 4-3.6 4.3-4.7 0.2-1.1 0.9-2 1.5-2 0.5 0 5.2-4.2 10.4-9.3 5.2-5.1 9.9-9.7 10.5-10.2 0.5-0.6 4.5-4.6 8.8-9 4.3-4.4 9.4-9.2 11.3-10.7 1.9-1.4 7.1-6 11.5-10.2 4.4-4.2 8.5-7.6 9.2-7.6 0.7 0 2.1-1.2 3-2.7 1-1.4 4-4.2 6.7-6.2 2.8-2 6.2-4.8 7.6-6.1 1.4-1.4 4.8-4.4 7.4-6.5 2.6-2.2 6.1-4.6 7.7-5.3 1.6-0.7 3.3-2.3 3.8-3.5 0.5-1.2 3-3.8 5.5-5.7 2.6-2 7.4-5.8 10.7-8.5 3.3-2.8 7.5-6.2 9.3-7.5 1.8-1.4 6-4.6 9.2-7 3.2-2.5 7.9-5.9 10.4-7.5 2.4-1.7 4.9-3.6 5.5-4.2 0.5-0.6 3.4-2.9 6.5-5.2 3-2.2 7-5.4 9-7.1 1.9-1.6 4.3-3 5.2-3 1 0 1.9-0.4 2-0.9 0.2-0.4 2.5-2.3 5.3-4.1 2.7-1.9 6.2-4.5 7.7-6 2.2-2.1 2.7-3.5 2.7-7.3 0.1-2.9-0.5-5.3-1.4-6.2-0.9-0.9-1.5-3.1-1.5-5 0-2 0.4-3.7 1-3.8 0.7-0.2 0.5-1.4-0.5-3.2-0.8-1.7-3.1-4.5-5-6.3-2-1.8-5-3.5-6.8-3.9-1.8-0.3-3.9-1.1-4.6-1.7-0.8-0.7-3.6-1-6.3-0.9-3.2 0.2-6.3 1.2-9.1 2.9-2.3 1.5-7.6 5.5-11.7 8.9-4.2 3.4-8.5 6.7-9.8 7.3-1.2 0.6-3.9 2.7-6 4.5-2 1.9-5.6 4.7-7.8 6.3-2.2 1.6-7 5-10.5 7.6-3.5 2.5-7.8 5.7-9.4 7-1.6 1.2-5.7 3.6-9 5.3-3.3 1.6-10.1 5.7-15 9-5 3.3-11.1 7.1-13.5 8.5-2.5 1.3-6.9 3.8-9.9 5.5-3 1.6-8.6 5-12.5 7.6-3.9 2.5-9.2 5.7-11.6 7.1-2.5 1.4-7.9 5.1-12 8.1-4.2 3.1-8.7 6.1-10 6.8-1.4 0.7-5.2 3-8.5 5.2-3.3 2.1-7.6 4.5-9.5 5.3-2 0.8-6.2 3.2-9.4 5.2-3.2 2-11.1 7.1-17.5 11.3-6.4 4.2-14.2 9.5-17.4 11.8-3.1 2.2-6 4.1-6.2 4.1-0.3 0-2.4 1.2-4.8 2.8-2.3 1.6-9.6 6.4-16.2 10.7-6.6 4.3-13.3 8.1-14.8 8.6-2.4 0.7-3 0.4-5.1-2.4-1.3-1.8-6.4-10.2-11.4-18.7-4.9-8.6-10.1-17.4-11.5-19.5-1.4-2.2-4.1-6.2-5.9-8.9-1.8-2.7-5.7-7.6-8.5-11-4.3-5.1-6.7-6.8-13.5-10l-8.3-3.9c-11.9 2.4-13.7 3.4-17.1 6.7-2.2 2.2-5.2 6.3-6.6 9.1-1.3 2.7-4.4 8.1-6.8 12-2.4 3.8-11.6 21.4-20.5 39-8.8 17.6-19.1 38.7-22.9 47-3.7 8.2-7.4 16.3-8.2 18-0.7 1.6-2.2 5.2-3.3 8-1 2.7-4.7 11.5-8.1 19.5-3.4 7.9-9 20-12.4 26.8-5 10-7.1 13.2-11 16.5-2.7 2.3-7.5 6.3-10.5 9-3.1 2.7-7.3 6-9.4 7.3-2 1.3-4.2 2.1-4.7 1.9-0.6-0.3-1.3-4-1.6-8.3-0.4-5-1.2-8.4-2.3-9.6-0.9-1-3.7-2.9-6.1-4.2-2.5-1.3-5.6-3.2-6.8-4.2-1.9-1.4-2.4-3-2.8-8.7-0.3-3.9-0.5-9-0.5-11.3l0.1-4.2c-10.5-4.9-15.3-6.7-17.5-7.1-2.4-0.5-5.8-0.3-8.5 0.4-2.5 0.6-5.8 2.1-7.5 3.2-1.6 1.1-4.7 3.8-6.8 6-2.2 2.1-5.8 6.4-8 9.5-2.3 3-6.7 8.1-9.8 11.5-3.2 3.3-7.6 8.3-9.8 11.2-2.3 2.9-4.8 5.5-5.6 5.8-0.9 0.2-1.7 1.2-2 2.2-0.3 1-4.8 6-10.1 11.3-5.3 5.2-12.4 12.4-15.8 15.9-3.4 3.6-9.2 9.5-12.9 13.3-3.7 3.7-7 6.8-7.2 6.8-0.3 0-3.1 2.5-6.3 5.7-3.2 3.2-10.9 10.5-17 16.3-6.2 5.7-12.8 11.7-14.5 13.2-1.8 1.5-4.4 3.5-5.7 4.5-1.4 0.9-5.9 4.6-10 8.1-4.2 3.5-10.6 9.2-14.4 12.5-3.8 3.4-7.9 6.8-9 7.6-1.2 0.8-6.6 5.1-12.1 9.5-5.5 4.4-12.7 10.1-16 12.5-3.3 2.5-6.5 4.8-7 5.3-0.6 0.4-3.1 2.4-5.5 4.4-2.5 2-6.6 4.7-9 6-2.5 1.3-7.2 4.3-10.5 6.8-3.3 2.4-6.4 4.4-6.8 4.5-0.4 0-2.9 1.5-5.5 3.4-2.6 1.8-6.5 4.2-8.7 5.2-2.1 1.1-5.3 3.3-7 4.9-1.7 1.6-5.7 3.9-9 5.3-3.3 1.3-6.5 3-7 3.7-0.6 0.7-2.3 1.6-3.8 1.9-1.6 0.4-2.7 0.2-2.7-0.3 0-0.6 1.4-2.8 3.2-5 1.8-2.2 4.3-5.6 5.5-7.5 1.3-2 2.3-4.2 2.3-5 0-0.9 0.3-1.5 0.7-1.5 0.4 0 1.3-1 1.9-2.3 0.6-1.2 5.8-7.1 11.5-13.1 5.7-6 13-13.6 16.1-16.8 3.2-3.2 6.2-5.8 6.8-5.8 0.5 0 1-0.6 1-1.3 0-0.7 4.5-5.5 10.1-10.7 5.6-5.3 18.7-18 29.3-28.3 10.5-10.3 19.7-19.4 20.6-20.2 0.8-0.8 8.6-8.6 17.3-17.2 8.6-8.7 19.7-19.9 24.6-24.8 4.9-5 13.2-13.5 18.4-19 5.3-5.5 13.6-14.3 18.6-19.5 5-5.3 9.1-9.9 9.1-10.3 0-0.4 2.6-3.4 5.7-6.6 3.2-3.2 8.7-9.1 12.3-13.1 3.5-4.1 9.7-10.8 13.7-15 4-4.1 8.7-9.6 10.5-12 1.8-2.5 4.5-5.9 6.1-7.5 1.5-1.7 2.7-3.3 2.7-3.5-0.1-0.3 0.8-1.7 2-3 1.1-1.4 3.9-4.8 6.2-7.5 2.4-2.7 5.7-6.5 7.5-8.5 1.7-1.9 5.3-6 8-9 2.7-3.1 6-7.2 7.3-9.3 1.4-2.1 2.8-3.7 3.2-3.7 0.4 0 2.2-2.4 4-5.3 1.7-2.9 6.1-9.1 9.7-13.7 3.6-4.7 8.5-11 11-14 2.4-3.1 4.7-5.7 5.2-5.8 0.5-0.1 0.9-0.8 0.9-1.5 0-0.7 2.5-4.6 5.4-8.7 3-4.2 6.4-8.8 7.5-10.3 1.3-1.7 2.5-2.5 3.3-2q1.2 0.7 0.6-0.7c-0.2-0.9 0.8-3.4 2.4-5.5 1.6-2.2 5.3-7.8 8.3-12.3 3-4.5 5.9-8.5 6.5-8.7 0.5-0.3 1.4-1.6 2-2.8 0.6-1.2 2.1-3.8 3.5-5.7 1.3-2 2.8-4 3.3-4.5 0.5-0.6 2.3-3.5 4.2-6.5 1.8-3.1 5.3-8.6 7.9-12.3 2.5-3.8 4.9-6.8 5.3-6.8 0.4 0 0.8-0.7 0.8-1.7 0-1 1.2-3.3 2.7-5.2 1.5-2 3.3-4.2 4.1-5 0.8-0.9 2.2-2.8 3-4.3 0.9-1.5 2-2.8 2.4-2.8 0.4 0 0.8-0.6 0.8-1.4 0-0.9 1.3-2.9 3-4.5 1.6-1.7 3-3.7 3-4.5 0-0.9 0.4-1.8 1-2 0.5-0.3 5.1-6.1 10.1-12.8 5-6.7 10.2-13.3 11.5-14.5 1.3-1.2 2.4-2.7 2.4-3.2 0-0.6 1-2.5 2.2-4.3 1.3-1.9 3.5-4.8 5-6.5 1.5-1.8 3.2-3 3.8-2.7 0.5 0.2 0.7-0.1 0.4-0.8-0.3-0.7 2.4-5.4 6-10.5 4.9-6.9 6.6-10.2 6.8-13.1 0.2-2.1-0.2-5.2-0.8-6.7-0.7-1.6-1-4.3-0.7-5.9 0.3-1.7-0.2-4.6-1.1-6.5-1.1-2.6-3-4.3-6.8-6.3-2.9-1.5-6.9-2.9-8.8-3.1-2-0.3-6.2 0.1-9.5 0.7zm-59.3 197.2c-1.8 0.8-3.7 2.6-4.2 4-0.6 1.3-2.4 3.1-4 4-1.7 0.8-3 2.2-3.1 3.2 0 1-0.9 2.9-1.9 4.3-1.1 1.3-2 3.6-2 5 0 1.3 0.4 3.8 0.9 5.5 0.6 1.6 2.3 3.9 3.8 5 1.5 1.2 3.9 2.5 5.3 2.9 1.3 0.4 3.1 1.4 4 2.1 0.8 0.7 3.7 2.4 6.5 3.9 4.6 2.4 5.5 2.5 13 1.9 6.1-0.6 8.4-1.2 9.9-2.8 1.1-1.1 3.3-2.7 5-3.5 1.7-0.9 3.6-2.7 4.3-4 0.7-1.4 1.3-4.6 1.3-7 0-2.6-0.9-6.5-2.1-9-1.2-2.5-3.6-6.1-5.3-7.9-1.7-1.8-5.4-4.5-8.1-5.9-3.7-1.8-7-2.6-12.5-2.9-5.2-0.2-8.5 0.1-10.8 1.2zm-1755.4 902.4c-1.3 0.4-3 1.1-3.8 1.6-0.9 0.5-5.8 1-11 1.1-5.6 0.1-11 0.8-13 1.7-2 0.8-5.4 1.7-7.8 2-2.8 0.5-4.4 1.2-4.7 2.4-0.2 1-1.4 2.1-2.5 2.5-1.7 0.6-2 1.4-1.6 4.5 0.2 2.1 0.5 5 0.7 6.6 0.3 2-0.3 3.4-1.9 4.8-1.2 1-2.2 2.5-2.2 3.4 0 0.8-0.5 1.7-1 2-0.6 0.2-1.6 0-2.3-0.5-0.7-0.6-1.8-0.6-2.7 0-0.9 0.5-2.5 0.7-3.8 0.4-2-0.4-2.2-0.1-2 3 0.2 1.8 0.6 3.8 1 4.2 0.5 0.5 0.9 0.2 0.9-0.6 0.1-0.9 0.2-2.2 0.2-3 0.1-0.7 0.8-1.6 1.7-1.9 1.1-0.4 1.3 0 0.8 1.9-0.4 1.4-0.2 3.2 0.5 4.1 1.1 1.5 1.3 1.4 2.8-0.5 1.4-1.8 2-2 4-1 1.3 0.6 4.8 1.4 7.9 1.7 3 0.4 7 0.3 9-0.1 2.2-0.6 4.4-0.4 6 0.4 1.3 0.6 2.8 1.9 3.2 2.8 0.4 0.8 1.8 1.5 3 1.5 1.3 0 3.2 0.1 4.3 0.2 1.1 0.1 3.3 0.1 5-0.1 2.7-0.2 2.8-0.3 0.7-0.9-1.3-0.4-2.4-1.1-2.5-1.6-0.1-0.5 2-1.4 4.8-2 2.7-0.6 8.5-1 12.7-0.8 4.9 0.1 7.6-0.1 7.3-0.7-0.3-0.6 0.1-1.8 1-2.8 1.3-1.6 1.2-2-0.8-4-1.9-2-2.1-2.7-1.2-5.7 0.5-1.8 1.9-4.4 3.1-5.7 1.7-1.8 2-2.9 1.3-4.6-0.5-1.2-1.4-2.2-1.9-2.2-0.6 0-1-0.9-1-2 0-1.2-0.7-2-1.5-2-0.9 0-1.8-1.2-2-2.5q-0.5-2.5-2.8-2.8c-1.3-0.1-2.2-0.9-2.1-1.8 0.1-0.8-0.7-1.9-1.7-2.5-1-0.6-2.9-0.8-4.1-0.5zm28.5 35.1c0.4 1.2 0.1 2.3-0.8 3-0.9 0.5-1.9 0.9-2.3 0.8-0.4 0-1.9 0-3.2 0.1q-2.5 0.3-0.8 0.7c1 0.2 1.8 1.3 1.8 2.4 0 1.4 0.6 1.9 2.2 1.9q2.3 0 4.1 3.3c1.5 2.6 1.7 4 1 6.8-0.7 2.8-1.4 3.5-3.9 3.8-1.6 0.2-3.5 0.7-4.2 1.2-0.7 0.5-1.7 0.7-2.2 0.5-0.6-0.3-1.5-0.3-2 0-0.7 0.3-0.6 1 0.2 2 0.9 1 1.6 1.2 2.5 0.5 0.9-0.7 1.5-0.7 2 0.2 0.4 0.7 0.8 1.9 1 2.8 0.2 1.1-0.4 1.3-2.3 1-1.4-0.3-2.8-0.2-3 0.2-0.2 0.4-1.6 0.5-2.9 0.3-2.1-0.5-2.6-0.1-3.1 2.2-0.4 1.7-0.9 2.3-1.3 1.4-0.5-1-0.9-0.9-2.1 0.3-1.1 1.1-1.9 1.3-2.8 0.6-0.7-0.6-1-1.7-0.7-2.5 0.2-0.9 0.2-1.5 0-1.5-0.3 0-1.4 0.5-2.5 1.2-1.7 1.1-2.2 1-3.3-0.7-0.7-1.1-1.9-1.6-2.7-1.3-0.9 0.4-1.9 0.3-2.4-0.1-0.4-0.3-2.3-0.5-4.2-0.4-1.9 0.1-3.4-0.2-3.4-0.7 0-0.6-1.2-0.8-2.5-0.5-1.8 0.3-2.5 0-2.5-1 0-1 0.9-1.5 2.5-1.5 1.7 0 2.3-0.5 2-1.5-0.4-1.1 0.7-1.9 3.5-2.8 2.2-0.7 4-1.6 4-2 0-0.4-0.8-0.8-1.8-0.9-0.9-0.1-2.3-0.1-3 0-0.7 0.1-1.2-0.3-1.2-0.8 0-0.6 1.8-1.2 4-1.3 2.2-0.1 4.4 0.2 4.9 0.8 0.6 0.6 1.1 0.5 1.5-0.3 0.3-0.7 0.3-1.7 0.1-2.2-0.3-0.6-1.1-1-1.8-0.9-0.7 0.1-1.9-0.1-2.7-0.4-0.9-0.3-3.3-0.8-5.5-1.1-3.1-0.4-4.3-0.1-5.2 1.2-1 1.5-1.1 1.4-1.7-0.6-0.4-1.2-1.1-2.2-1.6-2.2-0.6 0-1.3 1.9-1.6 4.2-0.5 3.8-0.7 4-1.8 2.3-0.6-1-1.7-1.6-2.4-1.2-0.7 0.4-1.7 0-2.2-0.8-0.6-0.9-1.5-1.3-2-1-0.6 0.2-1.9-0.1-3.1-0.8-1.5-0.9-2.2-1-2.7-0.1-0.5 0.8-2.1 0.9-5.2 0.3-2.5-0.5-5.1-0.9-5.8-0.9-0.7 0-1.7 1.6-2.2 3.7-0.7 2.8-0.7 4.1 0.2 5 0.8 0.8 5.3 1.3 12.5 1.5 10.1 0.2 11.2 0.4 11.8 2.3 0.7 1.9 0.7 1.8 1.1-0.3 0.2-1.2 0.8-2.2 1.4-2.2 0.5 0 0.9 1.1 0.7 2.6-0.2 2-0.8 2.7-3 3-1.8 0.2-2.9-0.2-3.2-1.1q-0.5-1.5-4.5-1.5c-2.2 0-4.3 0.4-4.5 1-0.3 0.5-2.7 0.7-5.5 0.5-4.5-0.5-5-0.4-5 1.5 0 1.2 0.6 2 1.7 2 1.6 0 1.6 0.1-0.1 1.4-1.6 1.2-1.8 2.2-1.3 6 0.4 2.7 1.3 4.8 2.2 5.1 0.8 0.2 2 0.2 2.7-0.1 0.7-0.3 2.2 0.2 3.3 1l2 1.5c-3.1 0.2-5 0.2-6.3 0.2-1.2-0.1-2.6 0.5-3 1.4-0.4 0.9-0.2 1.9 0.5 2.5 1 0.7 0.8 1.4-0.7 3-1.1 1.1-2.9 2-4 2-1.1 0-2 0.3-2 0.7-0.1 0.4 1.9 1.1 4.2 1.5 2.4 0.4 5.6 0.3 7.3-0.1 1.6-0.5 3.6-0.7 4.5-0.4 0.8 0.2 2.4 0.8 3.5 1.2 1.1 0.5 2.9 1.2 4 1.6l2 0.7c-3.5 1.4-3.6 1.7-2.5 1.8 0.8 0.1 4.8 0.4 9 0.5 4.1 0.2 8 0.6 8.7 0.9 0.7 0.3 1 1 0.8 1.6-0.3 0.5 0 1.3 0.7 1.8 0.7 0.5 3.1 1.2 5.3 1.5 2.2 0.4 4.6 1.3 5.5 2.2 0.8 0.8 2 1.5 2.7 1.5 0.7 0 1.5 0.6 1.8 1.5 0.2 0.8 1.4 1.5 2.5 1.5 1.1 0 2.2-0.8 2.5-1.8 0.4-1.5 0.8-1.4 3.2 1 1.5 1.5 3.4 2.7 4.3 2.7 0.8 0 2 1.1 2.7 2.5 0.7 1.4 1.7 2.6 2.3 2.6 0.5 0 1.5 0.1 2.2 0.2 0.7 0.1 1.3 1.4 1.3 2.8 0 1.6-0.5 2.3-1.5 2.1-0.9-0.1-2.7 0-4 0.3-2.5 0.6-2.5 0.6-0.5 2 1.9 1.4 1.9 1.5-0.8 1.5-1.7 0-2.7 0.6-2.7 1.6 0 1 1.1 1.5 4 1.5 3.3 0 4-0.4 4.3-2.3l0.4-2.2c0.2 3.4 1.1 4.7 2 5.1 1 0.4 3.3 1.3 5.3 2.1 1.9 0.9 4.1 1.5 5 1.3 0.8-0.1 2.1 0.6 3 1.4 0.8 0.9 2 1.6 2.7 1.6 0.7 0 1.3 0.4 1.3 1 0 0.5-1 1-2.3 1.1-1.2 0-0.2 0.5 2.3 1 2.4 0.5 4.9 1.3 5.5 1.8 0.5 0.6 0.7 1.3 0.5 1.5-0.3 0.3-2.8 0.9-5.5 1.3-4.2 0.6-5.1 1.1-5.3 3-0.1 1.2-0.7 2-1.2 1.8-0.6-0.3-1-1.4-1-2.5 0-1.8-0.6-2-5.1-1.8-3.7 0.2-5.4 0.7-6 2-0.8 1.5-1.5 1.6-4.4 0.8-2-0.6-4-0.8-4.5-0.5-0.6 0.2-0.8 1.1-0.5 2 0.3 0.9-0.4 1.8-1.8 2.4-1.2 0.5-1.6 0.9-0.7 1 0.8 0 2 1.1 2.7 2.5 1.1 2.2 2.2 2.6 7 3.2 3.2 0.3 7.3 0.3 9.3 0 1.9-0.4 3.8-1.3 4.2-2.1 0.4-0.9 1.6-1.5 2.5-1.5 1 0 3-0.9 4.5-2 1.5-1.1 3.3-2.1 4-2.1 0.7 0 1.7 0.5 2.3 1.1 0.7 0.9 1.8 0.8 4-0.3 2-0.9 5.7-1.3 11-1.1 4.4 0.2 9.2 0.3 10.7 0.3 1.8 0 2.8 0.6 2.8 1.6 0 0.8-0.6 1.6-1.2 1.7-0.7 0.1-0.9 1-0.5 2 0.4 1 1.5 1.6 2.4 1.5 1.2-0.2 1.9-1.4 2.3-3.7 0.4-2.7 1.1-3.6 3.6-4.5 1.8-0.6 3.6-1.4 4-1.8 0.5-0.4 0-1-1.1-1.4-1.1-0.4-2.4-1.2-2.8-1.8-0.4-0.6-0.7-2.2-0.7-3.5-0.1-1.5-1.1-3.3-2.6-4.3-1.3-1-3.1-1.5-3.9-1.2-0.9 0.2-1.8 0-2-0.5-0.3-0.6 0.4-1.3 1.5-1.5 1.1-0.3 2-0.9 2-1.3 0-0.4-0.6-1.3-1.5-2-1.2-1-1.3-2-0.6-5 0.8-3 0.6-4.3-0.7-6.2-0.9-1.4-1.8-3.2-2.1-4-0.2-0.9-0.5-5.4-0.6-10-0.1-4.7-0.4-9.2-0.8-10-0.3-0.9-1-4-1.5-7-0.6-3.1-2.4-7.6-4.1-10.3-1.7-2.6-3.1-5.4-3.1-6.2 0-0.9-1-2.1-2.3-2.9-1.2-0.7-3.6-2.7-5.2-4.5-1.7-1.7-5.3-3.9-8.1-4.9-2.9-1-6.1-2.5-7.3-3.5-1.6-1.3-2.2-1.4-2.6-0.5-0.3 0.9-0.6 0.9-1.3-0.2-0.6-0.9-1.1-3.5-1.1-5.8-0.1-3.4 0.2-4.2 1.6-4.2 1 0 2.3-0.5 2.9-1.3 0.8-0.8 0.8-2 0.2-3.7-1-2.5-1-2.5-2.5-0.5-1.5 1.9-1.5 1.9-3.2-0.3-0.9-1.3-2.6-2.3-3.9-2.3-1.5 0-2.1-0.4-1.7-1.4 0.2-0.9-0.2-1.8-1-2-0.9-0.3-1.8-0.5-2.2-0.5-0.3 0-0.3 0.9 0 2zm-83 19.1c0.1 2.4 0.6 4.2 1.2 4.1 0.5-0.1 1-1.9 1-3.9 0-2-0.6-3.9-1.2-4.1-0.8-0.3-1.2 0.9-1 3.9zm314.3 55c-0.7 0.5-0.1 0.9 1.4 1.3 1.3 0.3 4.3 0.6 6.4 0.8 2.9 0.2 4.1-0.2 4.3-1.2 0.2-1.2-0.8-1.5-5.3-1.5-3.1 0-6.1 0.3-6.8 0.6zm-318.4 0.7c-1.8 0.4-3.3 1-3.3 1.4 0.1 0.4 0.1 1.2 0.1 1.8 0 0.5 1.4 0.9 3.2 0.9 1.8 0 3.6 0.3 4 0.8 0.4 0.4 0.3 1.3-0.2 2-0.7 0.9-0.6 1.4 0.2 1.9 0.7 0.3 2.1 0.3 3 0 1.3-0.5 1.5-1 0.8-2.1q-1-1.5 0-3c0.5-0.9 0.7-2.2 0.5-3-0.3-0.9-1.5-1.5-2.8-1.4-1.2 0.1-3.7 0.4-5.5 0.7zm254.8 2.2c0 1.6 0.6 2 3.5 2 1.9 0 3.5-0.5 3.5-1 0-0.6-1.2-1.5-2.5-2-1.4-0.6-3-1-3.5-1-0.6 0-1 0.9-1 2zm71 2.5c0 0.8 0.5 1.4 1.2 1.4 0.7 0 2.4-0.7 3.8-1.4l2.5-1.5c-6.5 0-7.5 0.4-7.5 1.5zm-60.7 4.7c-0.2 0.4-0.2 1-0.1 1.2 0.2 0.3 4.4 0.6 9.4 0.8 5.1 0.1 9.6-0.1 10-0.5 0.5-0.4 0.5-1.1 0-1.5-0.4-0.4-4.9-0.8-9.9-0.8-5 0-9.2 0.3-9.4 0.8zm150.2 33.5c-0.4 0.4-1.9 0.8-3.4 0.8-1.4 0-2.8 0.4-2.9 1-0.2 0.5 1 1.1 2.5 1.3 1.5 0.2 3.2 0.7 3.8 1.2 0.6 0.6 2.6 0.1 5-1 3.1-1.6 3.5-2 1.7-2-1.2 0-3.1-0.5-4.1-1-1.1-0.5-2.2-0.7-2.6-0.3zm54.6 2.2c-0.3 1.1-1.5 2.3-2.6 2.6-2 0.5-1.9 0.6 0.2 1.5 1.3 0.5 2.7 1.7 3.2 2.7 1 1.7 1 1.7 1 0 0.1-1.1 0.8-1.7 2.1-1.7q2 0 2-2c0-1.1 0.8-2.4 1.7-2.7 1.6-0.6 1.6-0.8-0.2-1.5-1.1-0.4-3.1-0.7-4.4-0.8-1.4 0-2.5 0.7-3 1.9zm-126.1 4.7c-0.2 0.5-0.3 1.5-0.4 2.4-0.1 0.9-1.5 1.6-4.1 2-3.9 0.4-3.9 0.5-4.2 5-0.2 2.4-0.5 5-0.8 5.7-0.3 0.8-1.7 1.1-3.5 0.8-2.3-0.4-3.3-0.1-4 1.5-0.6 1.1-0.8 2.5-0.5 3.2 0.3 0.8 3.4 1.3 9.5 1.5 7 0.2 10-0.2 13.7-1.7 2.6-1 5.4-2.1 6.3-2.4 0.9-0.3 0.6-0.5-0.8-0.6-1.4 0-2.8-1.1-3.7-2.8-0.8-1.5-1.1-3.1-0.7-3.6 0.3-0.4 0.7-1.3 0.7-2 0-0.6 1.3-1.4 3-1.6 1.8-0.4 3-1.2 3.2-2.3 0.2-1.4-0.3-1.6-2.5-1.2-1.5 0.3-4.1 0.1-5.7-0.3-1.7-0.5-3-1.5-3-2.2 0-0.8-0.5-1.6-1.2-1.8-0.6-0.2-1.2 0-1.3 0.4zm-287 3.2c-1.1 0.7-0.9 1 1.2 1.4 1.5 0.3 3.1 0.4 3.7 0.2 0.6-0.3 0.8-0.9 0.6-1.4-0.3-0.6-1.3-1-2.3-1-0.9 0-2.4 0.4-3.2 0.8zm443.9 1.2c-2 1.5-2.2 2-1.2 3.4 1 1.2 1 2 0 3.6-0.7 1.1-1.7 1.9-2.2 1.9-0.6 0-1.7 0.7-2.5 1.7-0.9 0.9-1.6 2.9-1.7 4.3-0.1 1.4 0.3 3.2 0.7 4.1 0.6 0.9 3.2 1.7 6.7 2.1 3.5 0.4 7.1 0.2 9.1-0.5 2.7-1 3.4-0.9 4.2 0.4 0.8 1.3 0.9 1.3 1.5 0 0.4-0.9 0.2-2.6-0.4-3.8-0.6-1.2-0.9-2.9-0.6-3.7 0.3-0.9-0.3-1.8-1.3-2.2-0.9-0.4-3-1.9-4.5-3.5l-2.7-2.8c3.9-2 5-2.8 5-3 0-0.3-0.5-1.2-1-2-0.5-0.9-2.2-1.6-3.8-1.7-1.5 0-3.9 0.7-5.3 1.7zm-109.7 7c-1 0.4 0.4 0.9 3.3 1.2 2.7 0.3 5.8 0.3 6.7 0.1 1-0.2 1.7-0.8 1.6-1.4-0.2-0.5-2.4-0.8-5.1-0.7-2.6 0.1-5.6 0.5-6.5 0.8zm213.3 7.6c-0.5 0.4-0.8 1.5-0.7 2.5 0.1 1.4 0.9 1.8 3.4 1.6 2.1-0.2 3.3-0.8 3.3-1.8 0-0.8-0.9-1.4-2-1.3-1.1 0.1-2.3-0.2-2.6-0.7-0.3-0.6-0.9-0.7-1.4-0.3zm54.3 15c-0.4 0.3-2.8 0.6-5.4 0.7-2.9 0.1-4.9 0.6-5.1 1.4-0.2 0.9 1.3 1.2 5.8 1 3.3-0.1 6.2-0.5 6.4-0.7 0.2-0.3 0-1.1-0.4-1.8-0.4-0.7-1-1-1.3-0.6zm177.9 60.1c-0.4 0.4-0.5 1.1-0.2 1.5 0.3 0.4 2 0.8 4 0.8 1.9 0 3.7-0.5 4-1 0.2-0.6-0.2-1.3-1-1.5-0.9-0.3-2.6-0.5-3.9-0.5-1.2 0-2.6 0.3-2.9 0.7zm-3.3 17.8c-0.2 0.8-0.2 1.9 0.1 2.5 0.2 0.5 1.4 1 2.5 1 1.1 0 2.1-0.8 2.2-1.6 0.2-0.9 0.2-2 0-2.5-0.1-0.5-1.1-0.9-2.3-0.9-1.1 0-2.2 0.6-2.5 1.5zm161.2 103.4c-0.3 0.6-0.3 1.7 0.1 2.6 0.4 0.8 1.2 1.4 1.8 1.2 0.5-0.2 1-1.2 1-2.2 0-1.1-0.5-2.1-1.2-2.3-0.6-0.2-1.4 0.1-1.7 0.7zm54.9 24.5c-0.6 0.2-2.3 0.6-3.8 1-1.5 0.3-2.5 1-2.2 1.6 0.2 0.5 1.4 1 2.5 1 1.1 0 2 0.4 2 1 0 0.5-0.8 1-1.8 1-0.9 0-2.9 0.6-4.2 1.4-2.4 1.2-2.5 1.3-0.5 2.3 1.4 0.7 1.6 1.2 0.7 1.6-0.7 0.4-1.2 1.1-1.2 1.7 0 0.5 1.2 0.9 2.7 0.9 1.5 0 3.4 0.7 4.3 1.6 0.8 0.9 2.6 1.5 3.9 1.3 2.3-0.3 2.5-0.8 3-7.7 0.4-6.8 0.3-7.4-1.7-8.2-1.2-0.5-2.3-0.9-2.5-0.9-0.1 0.1-0.7 0.3-1.2 0.4zm-8.9 18.1c-0.4 0.8-0.6 1.9-0.6 2.5 0 0.5 0.6 1 1.5 1 0.8 0 1.7-0.5 2-1 0.2-0.6 0.2-1.7 0-2.5-0.3-0.9-0.9-1.5-1.4-1.5-0.5 0-1.2 0.6-1.5 1.5zm40.4 122.5c-0.6 1.2-2.2 2-4.1 2.2-1.6 0.1-3.1 0.7-3.2 1.2-0.1 0.6 2 1 4.8 1 4.9 0 5 0 5.2-3.2 0.1-1.8-0.2-3.2-0.7-3.2-0.5 0-1.4 0.9-2 2zm335.4 77.5c0.5 4 0.3 4.6-2 5.7-1.3 0.7-2.5 1.6-2.5 2 0.1 0.4 0.7 0.5 1.6 0.3 0.8-0.3 1.7 0 1.9 0.7 0.2 0.7 0.6 2.4 0.9 3.8 0.3 1.3 1.5 2.8 2.6 3.2 1.4 0.5 2.2 0.3 2.6-0.7 0.2-0.9 1-1.4 1.7-1.2 0.7 0.2 1.3 1.4 1.4 2.7 0 1.4 0.2 4.6 0.2 7.2 0.1 3.5 0.6 4.8 1.7 4.8 0.8 0 1.7-0.5 2-1 0.2-0.6 0-2.1-0.7-3.3-0.9-1.9-0.8-2.5 0.8-3.5 1.6-1.1 1.7-1.6 0.6-3.7-0.8-1.6-0.9-2.7-0.2-3 0.5-0.3 0.7-1.3 0.5-2.3-0.4-1.2 0.3-2.1 2.5-3 1.6-0.7 3-1.9 3-2.7 0-1-2-2.1-5.3-3.1-3.6-1.1-5.3-1.3-5.5-0.5-0.1 0.6-0.9 1.1-1.7 1.1-0.9 0-1.6-0.6-1.7-1.3-0.1-0.7-0.2-1.7-0.3-2.2-0.1-0.6-0.5-1.8-0.9-2.8-0.3-1-1.3-1.7-2.2-1.7-1.3 0-1.5 0.8-1 4.5zm-12.5 11c0 0.8 0.9 1.3 2 1.2 1.1-0.1 1.9 0.2 1.8 0.8-0.1 0.5-1 0.8-2 0.7-1-0.1-1.7 0.4-1.7 1.3 0 1 0.9 1.4 3 1.2 2.1-0.2 3.4-1.1 4.5-3 0.8-1.5 1.1-2.8 0.7-2.9-0.4 0-2.4-0.2-4.5-0.4-2.9-0.2-3.8 0-3.8 1.1zm258.1 26.7c-0.6 0.7-2.6 1.4-4.3 1.5-1.8 0.2-3.7 0.8-4.2 1.3q-1 1 0.2 3c1.1 1.6 1 2-0.2 2.5-0.9 0.2-2 0.2-2.5 0-0.6-0.3-1.3 0.7-1.7 2.2-0.3 1.5-0.9 3.2-1.3 3.8-0.4 0.5-0.8 2.4-0.9 4.2-0.1 2 0.3 3.2 1.1 3.2 0.7 0 1.9 0.7 2.8 1.7 0.8 0.9 1.5 3.6 1.5 6 0 3.6 0.3 4.3 2 4.3 1.1 0 6.2 0.3 11.5 0.6 5.6 0.3 10.4 1.2 11.7 2 1.5 1 3.3 1.2 5.3 0.7 2.6-0.6 3.1-0.4 3.5 1.3 0.3 1.1 1.7 2.2 3.2 2.6 1.5 0.3 3.4 0.3 4.2 0 0.7-0.4 1.8-1.7 2.2-2.9 0.7-1.7 1.3-2 2.6-1.4 1 0.5 3.2 0.7 5 0.5 1.8-0.2 3.3-0.8 3.3-1.3 0-0.6-0.6-1.4-1.3-1.8-0.7-0.4-3-0.7-5.2-0.7-3.5 0-4.1-0.4-4.3-2.5-0.2-1.4-0.7-3.7-1.2-5-0.6-1.4-2.3-3.2-4-4-2.5-1.2-3.3-1.3-4.3-0.3-0.6 0.7-1.5 1.3-1.9 1.3-0.5 0-1.3-1.2-1.8-2.5-0.6-1.4-1.8-2.6-2.8-2.6-0.9 0-2.7-0.6-3.9-1.2l-2.3-1.2c5.2-3.5 5.8-4.6 5.3-6-0.3-1.1-1.5-3.1-2.7-4.4-1.6-1.7-2.8-2.2-4.9-1.7-1.9 0.4-3.1 0-4-1.1-0.7-0.9-2-2-2.9-2.4-1-0.5-2.1-0.4-2.8 0.3zm-188.9 25.6c-0.6 1.5-1.2 3.1-1.2 3.7 0 0.5-0.8 1.8-1.7 2.7-1.6 1.7-1.6 1.8 0.5 1.8 1.3 0 2.5 0.6 2.8 1.5 0.2 0.8 0.9 1.2 1.5 1 0.5-0.3 1-3.2 1.1-6.5 0-3.3-0.3-6.1-0.9-6.4-0.5-0.3-1.4 0.7-2.1 2.2zm13.9 30.7c-0.6 1.3-0.8 2.9-0.5 3.5 0.2 0.5 1.6 1 3 1 1.3 0 2.6-0.6 2.8-1.3 0.2-0.7 0-2.3-0.5-3.5-0.4-1.2-1.5-2.2-2.3-2.2-0.9 0-2 1.1-2.5 2.5zm381.2 66.1q-6.2 0.4-6.2 1.6c0 0.7 1.3 1.8 3 2.5 2.6 1.1 3.4 1 6.5-0.7 1.9-1.1 3.5-2.5 3.5-3 0-0.6-0.1-1-0.3-0.9-0.1 0.1-3 0.4-6.5 0.5zm200.7 171.3c-0.6 1-1.1 2.7-1.1 3.7 0.1 1 1 2.5 2 3.4 1.7 1.2 1.9 2.2 1.3 6.6-0.5 4.2-0.3 5.6 1.1 7.3 1.8 2 1.8 2 2.3-1.2 0.2-1.8 0.4-4.1 0.2-5.2-0.2-1.5 0.3-2 1.5-1.8 1.1 0.2 2-0.6 2.3-2 0.3-1.3 1.6-2.6 3-3 1.4-0.4 2.5-1.2 2.5-1.7 0-0.6-1.6-2.7-3.5-4.8-2.8-3.2-3.6-3.6-5-2.5-1.1 0.9-2.1 1-3.5 0.2-1.5-0.8-2.2-0.6-3.1 1z"/>
		<path id="Path 4" class="s1" d="m1013.5 191.4c-2.2 0.6-4.6 1.4-5.3 1.8-0.6 0.5-1.8 0.5-2.5 0.2-0.6-0.4-3.9 0.7-7.2 2.4-3.3 1.6-9.2 4.4-13 6.1-3.8 1.8-7.6 3.1-8.3 3.1-0.6 0-4.7 1.9-8.9 4.3-4.3 2.3-9.1 4.9-10.8 5.7-1.7 0.8-4.8 2.6-7 4.1-2.2 1.4-5.9 3.9-8.3 5.5-2.3 1.6-5.1 3.3-6.1 3.9-0.9 0.6-3.7 2.3-6.2 4-2.4 1.6-5.8 4.1-7.5 5.5-1.6 1.4-4.5 3.6-6.4 5-1.9 1.4-6.6 5.1-10.4 8.3-3.9 3.2-10.7 9.1-15.1 13.1-4.4 4-10.3 9.3-13.1 11.7-2.7 2.4-14.1 13.4-25.3 24.4-11.1 11-20.9 21.2-21.7 22.7-0.8 1.6-2 2.8-2.6 2.8-0.7-0.1-3.3 2.1-5.8 4.7-2.5 2.6-5.5 5.5-6.6 6.3-1.1 0.8-5.1 5.1-8.9 9.5-3.8 4.4-8.9 10-11.3 12.5-2.5 2.5-5.9 6.7-7.7 9.5-1.7 2.7-5.8 7.7-9.1 11-3.2 3.3-7.5 8.2-9.5 11-2 2.7-5.4 7.2-7.5 9.8-2.2 2.7-5.4 6.5-7.3 8.5-1.9 2-6 7.1-9.1 11.2-3.1 4.1-6.3 8.6-7 10-0.7 1.4-2.8 4.3-4.7 6.5-1.8 2.2-4 5.3-4.7 7-0.8 1.7-3.1 4.8-5.1 7-2 2.2-3.8 5-4 6.2-0.3 1.3-1 2.1-1.5 1.8-0.5-0.3-1.5 0.7-2.1 2.2-0.6 1.6-3 5.7-5.3 9.3-2.4 3.6-6.2 9.7-8.4 13.5-2.3 3.8-4.2 7.6-4.2 8.2 0 0.7-1.1 3.4-2.5 6-1.9 3.6-2.4 5.6-1.9 7.8 0.4 1.7 2.2 4.6 4 6.5l3.3 3.5c6.5-4.7 9.1-6.9 10-8 0.9-1.1 4.1-4.1 7.1-6.6 3-2.5 6.6-5.3 8-6.2 1.4-0.9 7.2-6.1 12.9-11.4 5.7-5.4 12.3-11.7 14.7-14.1 2.4-2.3 4.7-4.2 5.2-4.2 0.4 0 8.4-7.5 17.9-16.7 9.4-9.3 20.4-19.7 24.3-23.3 4-3.6 7.6-6.7 8-7 0.5-0.3 5.5-4.8 11.2-10 5.7-5.2 16.3-15.3 23.6-22.5 7.3-7.2 16.1-15.9 19.5-19.5 3.4-3.5 14.4-14.7 24.5-24.7 10-10.1 18.2-18.7 18.2-19.3 0-0.6 1.3-1.8 2.8-2.8 1.6-0.9 11.4-10.5 21.8-21.3 10.4-10.8 22.5-23.5 26.9-28.4 4.4-4.8 8.7-9.7 9.5-10.9 0.8-1.1 2.9-3.4 4.5-5.1 1.7-1.6 4.6-4.8 6.4-7 1.9-2.2 5.9-6.7 9-10 3.1-3.3 6.8-7.6 8.3-9.5 1.5-1.9 5.2-6.7 8.3-10.5 3-3.8 7-8.8 8.9-11 1.8-2.2 4.5-6 6-8.5 1.4-2.5 2.6-5.1 2.6-5.8 0-0.6-0.8-1.1-1.7-1.1-1 0.1-3.6 0.7-5.8 1.3zm816.5 145c-0.8 1.3-2.7 4.1-4.1 6.2-1.4 2.2-3.1 5.5-3.7 7.4-0.7 1.9-3 5.9-5.2 8.7-2.2 2.9-4.7 6.8-5.5 8.5-0.8 1.8-1.9 4-2.5 4.8-0.5 0.8-1.9 3.7-3.1 6.5-1.1 2.7-3.4 7.7-5 11-1.6 3.3-2.9 6.4-2.9 7-0.1 0.6-1.4 2.5-3 4.2-1.7 1.8-3 4.1-3 5 0 1-1.4 4.3-3 7.3-1.7 3-3 6.1-3 6.7 0 0.7 0.3 1.3 0.8 1.3 0.4 0 4.5-2.8 9.1-6.2 4.6-3.5 9.6-6.9 11-7.7 1.4-0.7 3.7-2.4 5.1-3.6 1.4-1.3 7.5-5.7 13.5-9.9 6-4.2 13.3-9.2 16-11.1 2.8-1.9 6.8-4.7 9-6.2 2.9-2.1 4.1-3.7 4.3-5.8 0.2-2.1-0.6-4.2-2.8-7-1.7-2.2-3.1-4.6-3-5.3 0-0.6-0.7-1.8-1.5-2.5-0.8-0.7-1.9-2.9-2.5-5-0.5-2-1.3-3.7-1.7-3.7-0.5 0-1.9-1.9-3.2-4.2-1.3-2.4-3.3-5.3-4.5-6.6-1.2-1.2-2.6-2.2-3.1-2.2-0.6 0-1.7 1.1-2.5 2.4zm51.4 76c-3.3 2.4-7.3 5.2-9 6.2-1.7 1.1-5.1 3.2-7.5 4.8-2.4 1.6-6 4-7.9 5.3-1.9 1.3-6.7 4.6-10.5 7.4-3.8 2.7-8.9 6.7-11.2 8.9-2.4 2.2-6.2 4.9-8.5 6-2.4 1.1-5.7 3-7.3 4.3-1.7 1.2-5.5 4.2-8.5 6.7-2.9 2.5-7.3 5.6-9.6 7-2.3 1.4-6.2 4.2-8.6 6.3-2.4 2.1-5.9 4.9-7.8 6.2-1.9 1.4-6.4 4.5-10 6.9-3.6 2.4-8.5 6.3-11 8.7-2.5 2.4-6.1 5.6-8 7.2-1.9 1.6-4.3 4.4-5.2 6.1-1 1.7-2.7 5.1-3.9 7.6-1.1 2.5-3.7 7.9-5.6 12-1.9 4.1-4.5 9.7-5.8 12.5-1.3 2.7-3.2 7.1-4.4 9.7-1.2 2.7-2.6 4.8-3.1 4.8-0.5 0-1.8 1.9-2.7 4.2-1 2.4-2 4.7-2.3 5.2-0.3 0.6 0.8 0.7 2.5 0.4 1.7-0.4 5.9-1.3 9.5-2.2 3.6-0.8 11.2-3.8 17-6.6 5.8-2.9 13.9-6.3 18-7.6 4.1-1.3 8.3-2.4 9.3-2.4 0.9 0 1.9-0.4 2.2-1 0.3-0.6 2.6-2.1 5.3-3.4 2.6-1.3 7.2-2.8 10.2-3.2 3-0.5 6-1.4 6.7-2.1 0.6-0.7 1.6-1.3 2.2-1.3 0.6 0 2.7-1.3 4.6-3 1.9-1.7 3.5-3.7 3.5-4.5 0-0.8 0.8-2.7 1.8-4.3 1-1.5 3.3-5.4 5.2-8.7 1.8-3.3 5.1-8.5 7.4-11.5 2.3-3.1 4.7-6.4 5.3-7.5 0.7-1.1 2-3.3 2.9-5 0.9-1.7 6.4-10.1 12.3-18.8 5.8-8.7 11.5-17.3 12.6-19.2 1.1-1.8 3.6-5.4 5.5-8 1.9-2.6 4.7-6.1 6.1-7.8 1.4-1.8 3.7-5.2 5.1-7.7 1.4-2.5 4.5-6.3 6.9-8.6 2.4-2.3 5-5.1 5.7-6.3 0.6-1.1 1.2-2.9 1.2-3.9 0-0.9-0.5-2.3-1.2-3-0.7-0.7-1.8-1.2-2.4-1.2-0.7 0-3.8 2-7 4.4zm51.6 29.3c0 0.5-2.9 4.6-6.4 9.3-3.6 4.7-8.7 11.2-11.4 14.5-2.7 3.3-5.7 7.6-6.7 9.5-0.9 1.9-2.6 4.4-3.6 5.5-1 1.1-3 3.3-4.3 5-1.3 1.7-3.6 5.2-5 8-1.4 2.7-2.4 5.2-2.1 5.5 0.2 0.3 2.6-0.6 5.2-1.9 2.7-1.3 6.6-3 8.8-3.8 2.2-0.8 5.1-2 6.5-2.8 1.4-0.7 5.2-2.6 8.5-4.3 3.3-1.6 7.6-3.3 9.5-3.7 1.9-0.5 6.2-2.1 9.5-3.6 3.3-1.6 6.7-2.9 7.5-2.9 0.8 0 2.4-0.9 3.5-1.9 1.1-1 4.7-2.8 8-4 3.3-1.2 8.3-3.2 11-4.5l5-2.3c-5.4-3.2-8.7-5-10.7-6.2-2.1-1.2-4.4-2.1-5-2.1-0.7 0-2.2-0.9-3.3-1.9-1.1-1-5.8-3.7-10.5-6.1-4.7-2.4-9.3-4.7-10.3-5.2-0.9-0.4-2.1-0.8-2.7-0.8-0.6 0-1 0.3-1 0.7zm5.5 86.6c-1.7 0.6-5.7 2.3-9 3.7-3.3 1.5-10.2 4.1-15.2 5.9-5.1 1.7-10 3.1-10.8 3.1-0.8 0-5 1.8-9.2 4-4.3 2.2-11.2 5.2-15.3 6.6-4.1 1.5-9.1 3.5-11 4.6-1.9 1-5.3 2.2-7.4 2.6-2.5 0.4-4.8 1.7-6.4 3.7-1.3 1.7-3.5 5.1-4.8 7.7-1.3 2.7-2.4 5.2-2.4 5.8 0 0.6 0.9 1 2 1 1.1 0 6.5-1.6 12-3.5 5.5-1.9 12.8-5 16.3-6.8 3.4-1.8 8-4 10.2-5 2.2-0.9 5.4-2.4 7-3.4 1.7-1 4.4-2.8 6-4 1.7-1.2 4.1-2.6 5.5-3.1 1.4-0.5 8.8-4.7 16.5-9.4 7.7-4.6 15-9.1 16.2-9.9 1.2-0.8 2.6-2.2 3.1-3.2 0.5-0.9 0.6-1.7 0.3-1.6-0.3 0.1-1.9 0.6-3.6 1.2zm-1141.6 160.8c-2 1.7-7.2 6.1-11.5 9.9-4.3 3.9-10.4 8.6-13.4 10.6-3 2.1-7.8 5.8-10.6 8.3-2.8 2.5-6.7 5.9-8.5 7.4-1.9 1.5-4.6 4-6.1 5.5-1.6 1.5-2.8 3-2.8 3.4 0 0.5-1.8 1.7-4 2.8-2.2 1.1-5.2 3-6.7 4.2-1.5 1.3-6.7 5.8-11.7 10-5 4.3-10.7 9.1-12.6 10.7-1.9 1.6-5.3 4.4-7.4 6.2-2.2 1.9-5 4.3-6.2 5.4-1.2 1.1-4.3 3.8-6.9 6-2.6 2.2-6.6 5.8-8.9 8-2.3 2.2-6.1 5.8-8.5 8-2.5 2.2-5.2 4.4-6.2 5-1 0.6-5.1 3.9-9 7.5-4 3.6-9.1 8.3-11.3 10.6-2.3 2.2-5.8 5.1-7.8 6.5-2 1.3-4.5 3.6-5.5 5.2-1 1.5-2.6 2.9-3.6 3.2-0.9 0.3-1.5 0.8-1.3 1.2 0.3 0.5-1.1 1.9-3 3.3-1.9 1.4-3.5 2.9-3.5 3.5 0 0.6-1.2 2-2.7 3.3-1.5 1.3-4.5 3.3-6.7 4.4-2.2 1.1-6 3.9-8.5 6.1-2.5 2.3-4.7 4.6-5 5.2-0.3 0.6-4.3 4.7-8.9 9-4.6 4.4-11.2 10.6-14.5 13.8-3.4 3.2-5.5 5.7-4.9 5.7 0.7 0-0.4 1.6-2.5 3.5-2 1.9-4 3.5-4.5 3.5-0.4 0-0.9 0.9-1.2 2-0.3 1.1-1.3 2.3-2.3 2.7-0.9 0.4-2.5 1.5-3.5 2.5-0.9 1-1.7 2.2-1.7 2.8 0 0.6-1.6 2.3-3.5 4-1.9 1.7-3.5 3.3-3.5 3.7 0 0.5-1.2 2-2.7 3.4-1.5 1.5-4.6 4.8-6.8 7.3-2.2 2.6-5.6 6.4-7.5 8.5-1.9 2.1-4.9 5.5-6.5 7.6-1.7 2.1-3.2 4.3-3.4 4.9-0.2 0.6-3.4 4.5-7 8.7-3.6 4.2-7.3 8.9-8.1 10.5-0.8 1.6-2.6 4.7-3.9 6.9-1.3 2.2-4.8 7.6-7.8 12-2.9 4.4-5.3 8.4-5.3 9 0 0.6-1.1 3-2.5 5.5-1.3 2.5-2.8 5.2-3.1 6-0.4 0.8-1.5 3.3-2.5 5.5-0.9 2.2-1.9 5.3-2.1 7l-0.3 3c7.7-0.5 11.3-1 13-1.5 1.6-0.4 7.7-2.3 13.5-4.1 5.8-1.9 12.1-4.1 14-5.1 1.9-0.9 6.4-3 10-4.7 3.6-1.6 9.8-4.8 13.7-7 4-2.3 7.9-4.1 8.5-4.1 0.7 0 2.5-1.2 3.9-2.7 1.4-1.6 4.1-3.4 6-4.2 1.9-0.8 13.5-8.2 25.9-16.4 12.4-8.3 24.9-16.9 27.9-19.1 2.9-2.3 6.3-4.7 7.5-5.5 1.1-0.8 3.9-3.1 6.1-5.2 2.2-2 6.5-5.3 9.5-7.3 3-2 7.1-4.9 9.1-6.4 1.9-1.5 5.7-4.5 8.4-6.7 2.7-2.2 7.2-6 10-8.5 2.7-2.5 5.2-4.7 5.5-5 0.3-0.3 2.7-2.4 5.5-4.7 2.7-2.3 5.6-4.2 6.2-4.3 0.7 0 2.5-1.8 4-4 1.6-2.3 3-4.1 3.3-4 0.3 0 2.1-2 4-4.5 1.9-2.5 5.1-5.6 7-6.9 1.9-1.2 5.7-4.7 8.5-7.6 2.7-2.9 6.8-6.9 9-8.9 2.2-2 7.3-6.8 11.4-10.6 4-3.8 9.2-9 11.5-11.5 2.2-2.5 6-6.5 8.4-9 2.3-2.5 4.3-4.6 4.2-4.8 0-0.1 1.7-1.9 3.7-4 2.1-2.1 4.9-5.3 6.3-7.2 1.4-1.9 4.5-5.9 7-9 2.4-3 4.9-6.4 5.5-7.5 0.5-1.1 3.2-4.9 6-8.5 2.7-3.5 6-8 7.2-10 1.3-1.9 2.9-5 3.8-6.8 0.8-1.7 1.9-3.4 2.5-3.7 0.5-0.3 2.1-3 3.5-6 1.4-3 2.5-5.8 2.5-6.3 0-0.4 1.1-2.8 2.5-5.5 1.4-2.6 2.2-5.2 1.7-5.8-0.4-0.6-0.1-1.4 0.6-1.8 0.7-0.3 1.5-1.9 1.7-3.6 0.3-1.7 0.9-5.9 1.5-9.5 0.6-3.6 1.6-10.6 2.2-15.5 0.6-4.9 0.8-10.7 0.4-12.8-0.3-2-1.1-3.7-1.6-3.7-0.6 0-1-1.2-1-2.8 0-1.5-0.6-4.2-1.3-6-0.9-2.5-1.8-3.2-3.7-3.1-1.4 0-4.1 1.4-6.1 3zm-877.4 605.5c-0.4 0.4-0.8 1.3-0.7 2.1 0.1 0.7 1.1 1.7 2.2 2.3 1.1 0.6 2.3 0.7 2.7 0.4 0.5-0.3 0.1-1.1-0.8-1.7-0.9-0.7-1.8-1.8-2-2.5-0.3-0.7-0.9-1-1.4-0.6zm99.2 57.1c-0.3 0.4-0.4 1.8-0.1 3 0.2 1.3 1.1 2.3 1.9 2.3 0.8 0 1.5-0.4 1.5-1 0-0.6 0.9-0.8 2-0.5 1.5 0.4 2 0 2-1.5 0-1.1-0.6-2-1.3-2-0.6 0-2.1-0.3-3.3-0.6-1.1-0.3-2.3-0.2-2.7 0.3zm18 1c-0.3 0.4-0.4 1.1-0.2 1.5 0.3 0.5 1.6 0.8 3 0.8 1.5 0 2.4-0.5 2.2-1.3-0.2-0.6-1.2-1.3-2.3-1.5-1.1-0.2-2.3 0.1-2.7 0.5z"/>
	</g>
</svg>